<svg width="35" height="35" viewBox="0 0 35 35" fill="none" xmlns="http://www.w3.org/2000/svg">
    <path fill-rule="evenodd" clip-rule="evenodd"
        d="M20.5935 16.3816H24.6299C25.2419 16.3816 25.7228 15.8756 25.7228 15.2654C25.7228 14.6404 25.2419 14.1493 24.6299 14.1493H20.5935C19.9815 14.1493 19.5006 14.6404 19.5006 15.2654C19.5006 15.8756 19.9815 16.3816 20.5935 16.3816ZM29.4241 8.64425C30.313 8.64425 30.8959 8.95678 31.4788 9.64137C32.0617 10.326 32.1637 11.3082 32.0325 12.1997L30.6482 21.9625C30.3859 23.8392 28.8121 25.2218 26.9615 25.2218H11.0634C9.12537 25.2218 7.52245 23.7053 7.36216 21.7408L6.02154 5.51745L3.82117 5.13051C3.23829 5.02633 2.83028 4.44592 2.93228 3.85062C3.03428 3.24193 3.60259 2.83862 4.20004 2.9294L7.67546 3.46368C8.1709 3.55446 8.5352 3.96968 8.57892 4.47568L8.85579 7.80935C8.8995 8.28707 9.27837 8.64425 9.74468 8.64425H29.4241ZM10.83 27.5739C9.60594 27.5739 8.61505 28.586 8.61505 29.8361C8.61505 31.0713 9.60594 32.0833 10.83 32.0833C12.0395 32.0833 13.0304 31.0713 13.0304 29.8361C13.0304 28.586 12.0395 27.5739 10.83 27.5739ZM27.2234 27.5739C25.9994 27.5739 25.0085 28.586 25.0085 29.8361C25.0085 31.0713 25.9994 32.0833 27.2234 32.0833C28.4329 32.0833 29.4238 31.0713 29.4238 29.8361C29.4238 28.586 28.4329 27.5739 27.2234 27.5739Z"
        fill="#D79947" />
</svg>