<svg width="56" height="56" viewBox="0 0 56 56" fill="none" xmlns="http://www.w3.org/2000/svg">
<path fill-rule="evenodd" clip-rule="evenodd" d="M36.9827 5.83497C38.4551 5.83497 39.925 6.04263 41.3227 6.51163C49.935 9.31163 53.0384 18.7616 50.446 27.0216C48.976 31.2426 46.5727 35.095 43.425 38.2426C38.9194 42.606 33.975 46.4793 28.6527 49.816L28.0694 50.1683L27.4627 49.7926C22.1217 46.4793 17.1494 42.606 12.6017 38.2193C9.47505 35.0716 7.06939 31.2426 5.57605 27.0216C2.93939 18.7616 6.04272 9.31163 14.7484 6.46263C15.4251 6.2293 16.1227 6.06597 16.8227 5.97497H17.1027C17.7584 5.8793 18.4094 5.83497 19.0627 5.83497H19.3194C20.7894 5.8793 22.2127 6.13597 23.5917 6.60497H23.7294C23.8227 6.6493 23.8927 6.6983 23.9394 6.74263C24.4551 6.9083 24.9427 7.09497 25.4094 7.35163L26.2961 7.7483C26.5103 7.86257 26.7508 8.03717 26.9586 8.18806C27.0903 8.28367 27.2089 8.36976 27.2994 8.42497C27.3375 8.44743 27.3762 8.47002 27.4152 8.4928C27.6152 8.60959 27.8237 8.73124 27.9994 8.86597C30.5917 6.88497 33.7394 5.81163 36.9827 5.83497ZM43.1893 22.635C44.146 22.6093 44.9626 21.8416 45.0326 20.8593V20.5816C45.1026 17.3126 43.1216 14.3516 40.1093 13.2083C39.1526 12.8793 38.1026 13.395 37.7526 14.375C37.426 15.355 37.9393 16.4283 38.9193 16.776C40.415 17.336 41.416 18.8083 41.416 20.4393V20.5116C41.3716 21.046 41.5326 21.5616 41.8593 21.9583C42.186 22.355 42.676 22.586 43.1893 22.635Z" fill="#D79947"/>
<line x1="6.06066" y1="4.93934" x2="44.9515" y2="43.8302" stroke="#DE1717" stroke-opacity="0.94" stroke-width="3"/>
</svg>
