<svg width="35" height="36" viewBox="0 0 35 36" fill="none" xmlns="http://www.w3.org/2000/svg">
<path fill-rule="evenodd" clip-rule="evenodd" d="M23.9431 9.43542H24.2418C28.1677 9.43542 31.3538 12.7167 31.3538 16.7417V24.7917C31.3538 28.8167 28.1677 32.0833 24.2418 32.0833H10.7575C6.83168 32.0833 3.64551 28.8167 3.64551 24.7917V16.7417C3.64551 12.7167 6.83168 9.43542 10.7575 9.43542H11.0562C11.0847 7.68542 11.7532 6.05209 12.9622 4.82709C14.1855 3.58751 15.7501 2.96042 17.5139 2.91667C21.0414 2.91667 23.9005 5.83334 23.9431 9.43542ZM14.4559 6.38751C13.6593 7.20417 13.2184 8.28334 13.1899 9.43542H21.8097C21.767 7.04376 19.861 5.10417 17.514 5.10417C16.4188 5.10417 15.2809 5.55625 14.4559 6.38751ZM22.9051 15.05C23.5025 15.05 23.9719 14.5542 23.9719 13.9563V12.2646C23.9719 11.6667 23.5025 11.1708 22.9051 11.1708C22.3219 11.1708 21.8383 11.6667 21.8383 12.2646V13.9563C21.8383 14.5542 22.3219 15.05 22.9051 15.05ZM13.0335 13.9563C13.0335 14.5542 12.5641 15.05 11.9667 15.05C11.3835 15.05 10.8999 14.5542 10.8999 13.9563V12.2646C10.8999 11.6667 11.3835 11.1708 11.9667 11.1708C12.5641 11.1708 13.0335 11.6667 13.0335 12.2646V13.9563Z" fill="black"/>
<line x1="3.70711" y1="6.29289" x2="31.9914" y2="34.5772" stroke="#DE1717" stroke-opacity="0.94" stroke-width="2"/>
</svg>
