<svg width="35" height="35" viewBox="0 0 35 35" fill="none" xmlns="http://www.w3.org/2000/svg">
<path fill-rule="evenodd" clip-rule="evenodd" d="M6.62067 2.91666H11.5498C13.6061 2.91666 15.254 4.59374 15.254 6.65145V11.6229C15.254 13.6937 13.6061 15.3562 11.5498 15.3562H6.62067C4.579 15.3562 2.9165 13.6937 2.9165 11.6229V6.65145C2.9165 4.59374 4.579 2.91666 6.62067 2.91666ZM6.62067 19.6433H11.5498C13.6061 19.6433 15.254 21.3073 15.254 23.3781V28.3496C15.254 30.4058 13.6061 32.0829 11.5498 32.0829H6.62067C4.579 32.0829 2.9165 30.4058 2.9165 28.3496V23.3781C2.9165 21.3073 4.579 19.6433 6.62067 19.6433ZM28.3792 2.91666H23.45C21.3937 2.91666 19.7458 4.59374 19.7458 6.65145V11.6229C19.7458 13.6937 21.3937 15.3562 23.45 15.3562H28.3792C30.4208 15.3562 32.0833 13.6937 32.0833 11.6229V6.65145C32.0833 4.59374 30.4208 2.91666 28.3792 2.91666ZM23.45 19.6433H28.3792C30.4208 19.6433 32.0833 21.3073 32.0833 23.3781V28.3496C32.0833 30.4058 30.4208 32.0829 28.3792 32.0829H23.45C21.3937 32.0829 19.7458 30.4058 19.7458 28.3496V23.3781C19.7458 21.3073 21.3937 19.6433 23.45 19.6433Z" fill="#D79947"/>
</svg>
