<svg width="29" height="29" viewBox="0 0 29 29" fill="none" xmlns="http://www.w3.org/2000/svg">
    <path fill-rule="evenodd" clip-rule="evenodd"
        d="M24.5136 6.33525C24.9837 6.33525 25.375 6.72554 25.375 7.22216V7.68132C25.375 8.16586 24.9837 8.56823 24.5136 8.56823H4.48757C4.01633 8.56823 3.625 8.16586 3.625 7.68132V7.22216C3.625 6.72554 4.01633 6.33525 4.48757 6.33525H8.01073C8.7264 6.33525 9.34924 5.82655 9.51024 5.1088L9.69474 4.28473C9.98148 3.1622 10.9251 2.41666 12.0051 2.41666H16.9949C18.0631 2.41666 19.0173 3.1622 19.2935 4.22552L19.4909 5.1076C19.6508 5.82655 20.2736 6.33525 20.9904 6.33525H24.5136ZM22.7237 23.1203C23.0915 19.6923 23.7355 11.5482 23.7355 11.466C23.759 11.2171 23.6779 10.9815 23.5169 10.7918C23.3442 10.6142 23.1256 10.509 22.8847 10.509H6.12447C5.88239 10.509 5.65205 10.6142 5.49223 10.7918C5.33006 10.9815 5.25015 11.2171 5.2619 11.466C5.26406 11.4811 5.28716 11.768 5.3258 12.2476C5.49742 14.3782 5.97542 20.3123 6.28429 23.1203C6.50287 25.1889 7.86019 26.4891 9.82625 26.5362C11.3434 26.5712 12.9064 26.5833 14.5046 26.5833C16.01 26.5833 17.5389 26.5712 19.103 26.5362C21.1372 26.5012 22.4934 25.224 22.7237 23.1203Z"
        fill="#D79947" />
</svg>