<svg width="35" height="35" viewBox="0 0 35 35" fill="none" xmlns="http://www.w3.org/2000/svg">
<path fill-rule="evenodd" clip-rule="evenodd" d="M23.1143 3.64684C24.0345 3.64684 24.9533 3.77663 25.8268 4.06976C31.2095 5.81976 33.1491 11.726 31.5289 16.8885C30.6102 19.5266 29.1081 21.9343 27.1408 23.9016C24.3247 26.6287 21.2345 29.0495 17.9081 31.135L17.5435 31.3552L17.1643 31.1204C13.8262 29.0495 10.7185 26.6287 7.8762 23.887C5.92203 21.9198 4.41849 19.5266 3.48516 16.8885C1.83724 11.726 3.77682 5.81976 9.21786 4.03913C9.64078 3.8933 10.0768 3.79121 10.5143 3.73434H10.6893C11.0991 3.67455 11.506 3.64684 11.9143 3.64684H12.0747C12.9935 3.67455 13.8831 3.83496 14.7449 4.12809H14.831C14.8893 4.1558 14.9331 4.18642 14.9622 4.21413C15.2845 4.31767 15.5893 4.43434 15.881 4.59476L16.4352 4.84267C16.5691 4.91409 16.7194 5.02322 16.8493 5.11753C16.9316 5.17728 17.0057 5.23109 17.0622 5.26559C17.086 5.27963 17.1102 5.29375 17.1346 5.30798C17.2597 5.38098 17.3899 5.45701 17.4997 5.54121C19.1199 4.30309 21.0872 3.63226 23.1143 3.64684ZM26.9935 14.1468C27.5914 14.1308 28.1018 13.651 28.1456 13.037V12.8635C28.1893 10.8204 26.9512 8.96976 25.0685 8.25517C24.4706 8.04955 23.8143 8.37184 23.5956 8.98434C23.3914 9.59684 23.7122 10.2677 24.3247 10.485C25.2595 10.835 25.8852 11.7552 25.8852 12.7745V12.8198C25.8575 13.1537 25.9581 13.476 26.1622 13.7239C26.3664 13.9718 26.6727 14.1162 26.9935 14.1468Z" fill="#D79947"/>
</svg>
