<svg width="35" height="35" viewBox="0 0 35 35" fill="none" xmlns="http://www.w3.org/2000/svg">
    <path
        d="M13.3216 30.2945V25.8353C13.3216 24.697 14.2511 23.7742 15.3978 23.7742H19.5893C20.1399 23.7742 20.668 23.9913 21.0573 24.3779C21.4467 24.7644 21.6654 25.2886 21.6654 25.8353V30.2945C21.662 30.7677 21.8489 31.2227 22.1847 31.5586C22.5206 31.8945 22.9776 32.0833 23.4543 32.0833H26.314C27.6495 32.0868 28.9316 31.5625 29.8772 30.6262C30.8228 29.6899 31.3542 28.4185 31.3542 27.0927V14.3892C31.3542 13.3182 30.876 12.3023 30.0484 11.6151L20.3205 3.90231C18.6283 2.54999 16.2037 2.59365 14.5621 4.00601L5.0561 11.6151C4.18945 12.282 3.67147 13.3009 3.64587 14.3892V27.0797C3.64587 29.8431 5.90247 32.0833 8.68613 32.0833H11.4805C12.4706 32.0833 13.2752 31.2903 13.2824 30.3074L13.3216 30.2945Z"
        fill="#D79947" />
</svg>