<svg width="35" height="35" viewBox="0 0 35 35" fill="none" xmlns="http://www.w3.org/2000/svg">
<path fill-rule="evenodd" clip-rule="evenodd" d="M14.4307 16.3771C13.7927 16.3771 13.2882 16.8729 13.2882 17.5C13.2882 18.1125 13.7927 18.6229 14.4307 18.6229H23.3333V25.5938C23.3333 29.1667 20.3806 32.0834 16.7305 32.0834H9.50459C5.86936 32.0834 2.91666 29.1813 2.91666 25.6084V9.40627C2.91666 5.81877 5.8842 2.91669 9.51943 2.91669H16.7602C20.3806 2.91669 23.3333 5.81877 23.3333 9.39169V16.3771H14.4307ZM28.6274 12.4545L32.8857 16.6982C33.1045 16.917 33.2211 17.194 33.2211 17.5003C33.2211 17.792 33.1045 18.0836 32.8857 18.2878L28.6274 22.5315C28.4086 22.7503 28.117 22.867 27.8399 22.867C27.5482 22.867 27.2566 22.7503 27.0378 22.5315C26.6003 22.094 26.6003 21.3795 27.0378 20.942L29.3711 18.6232H23.3336V16.3774H29.3711L27.0378 14.0586C26.6003 13.6211 26.6003 12.9065 27.0378 12.469C27.4753 12.017 28.1899 12.017 28.6274 12.4545Z" fill="white"/>
</svg>
