<svg width="35" height="36" viewBox="0 0 35 36" fill="none" xmlns="http://www.w3.org/2000/svg">
<path fill-rule="evenodd" clip-rule="evenodd" d="M24.2132 9.55014C22.4063 7.82683 19.9949 6.88801 17.5 6.92659C12.9345 6.92659 9.05706 10.0067 7.67454 14.1542V14.1543C6.94149 16.3277 6.94148 18.6812 7.67453 20.8546H7.68095C9.06989 24.9957 12.9409 28.0758 17.5064 28.0758C19.8631 28.0758 21.8864 27.473 23.4545 26.4083V26.404C25.2999 25.1822 26.5603 23.2596 26.9525 21.0861H17.5V14.3472H34.0066C34.2123 15.5175 34.3088 16.7135 34.3088 17.9031C34.3088 23.2258 32.4065 27.7259 29.0968 30.7738L29.1002 30.7765C26.2002 33.4515 22.2198 35.0012 17.5 35.0012C10.8832 35.0012 4.83234 31.2716 1.86155 25.3622V25.3622C-0.620522 20.4173 -0.620516 14.5915 1.86156 9.64664H1.8616L1.86155 9.6466C4.83233 3.73074 10.8832 0.0011793 17.5 0.0011793C21.8468 -0.0502629 26.0458 1.58303 29.2095 4.55382L24.2132 9.55014Z" fill="#D79947"/>
</svg>
