<svg width="88" height="100" viewBox="0 0 88 100" fill="none" xmlns="http://www.w3.org/2000/svg">
<g clip-path="url(#clip0)">
<path d="M59.9403 56.6582C60.6458 57.5785 60.5613 58.9744 59.7512 59.776C55.6716 63.8149 49.9305 66.131 44.0002 66.131C38.0699 66.131 32.3291 63.8146 28.2495 59.776C27.4396 58.9744 27.3552 57.5782 28.0606 56.6582C28.7663 55.7382 29.9943 55.6419 30.8043 56.4436C34.1858 59.7915 38.9956 61.7116 44 61.7116C49.0047 61.7116 53.8144 59.7915 57.1964 56.4436C58.0064 55.6419 59.2348 55.738 59.9403 56.6582ZM87.9696 81.7631C87.9693 81.7643 87.9691 81.7658 87.9689 81.7672C87.9689 81.7677 87.9687 81.7685 87.9687 81.7692C87.9672 81.779 87.9654 81.7886 87.9639 81.7982L85.911 93.7435C85.7328 94.7811 84.9329 95.5298 84.0025 95.5298H3.99952C3.06933 95.5298 2.26922 94.7811 2.09096 93.7438L0.0369829 81.7965C0.0369829 81.796 0.0367668 81.7952 0.0367668 81.7945C0.0365507 81.7935 0.0363347 81.7925 0.0363347 81.7913C0.0361186 81.7898 0.0359025 81.7886 0.0356865 81.7871C0.0356865 81.7864 0.0354704 81.7854 0.0352543 81.7847C0.0350382 81.7827 0.0346061 81.7807 0.03439 81.779C0.03439 81.7788 0.03439 81.7785 0.03439 81.7783C-0.0176833 81.4616 -0.00752789 81.1483 0.055349 80.8539L6.93853 45.0586C7.13364 44.0438 7.92447 43.3205 8.83823 43.3205H9.77663C13.1988 43.3205 15.9829 40.1567 15.9829 36.2682V6.68007C15.9829 5.45951 16.8534 4.47025 17.9275 4.47025H28.23C29.3041 4.47025 30.1747 5.45951 30.1747 6.68007V7.12179C34.4875 7.8088 39.2307 8.16974 44.0009 8.16974C48.7713 8.16974 53.5141 7.80905 57.8269 7.12179V6.67983C57.8269 5.45927 58.6974 4.47 59.7715 4.47H70.5075C71.5816 4.47 72.4521 5.45927 72.4521 6.67983V36.2682C72.4521 40.1565 75.236 43.3202 78.6579 43.3202H79.1642C80.0782 43.3202 80.869 44.0436 81.0639 45.0584L87.9467 80.8531C88.008 81.1428 88.0188 81.4515 87.9696 81.7631ZM30.1742 16.2015C34.2759 16.2754 36.8956 16.5767 38.6386 18.7339C40.5234 21.0668 40.7501 24.8267 40.7937 32.2662V52.0151C41.8231 52.2938 42.897 52.4416 44.0002 52.4416C45.1039 52.4416 46.1774 52.2941 47.207 52.0151V32.2807C47.2506 24.8267 47.4773 21.0665 49.3621 18.7339C51.1051 16.5767 53.7243 16.2754 57.8262 16.2015V11.5842C53.4644 12.2518 48.8245 12.5894 44.0002 12.5894C39.1756 12.5894 34.5363 12.2518 30.174 11.5839V16.2015H30.1742ZM52.2272 21.7228C51.2298 22.9574 51.1272 27.0601 51.0965 32.2954V50.2102C55.1251 47.4614 57.8262 42.4478 57.8262 36.7303V20.6214C54.8872 20.6744 52.9381 20.8428 52.2272 21.7228ZM30.1742 36.7305C30.1742 42.4481 32.8758 47.4619 36.9044 50.2104V32.2807C36.8738 27.0601 36.7711 22.9574 35.7737 21.7228C35.0626 20.8428 33.1135 20.6744 30.1742 20.6214V36.7305ZM4.36101 79.1628H83.6401L77.5856 47.676C72.5209 47.0661 68.5622 42.1829 68.5622 36.2687V8.8899H61.7155V36.7305C61.7155 47.8307 53.7684 56.8613 44.0002 56.8613C34.2321 56.8613 26.2847 47.8307 26.2847 36.7305V9.06325C26.2843 9.03869 26.2843 9.01389 26.2847 8.98909V8.88965H19.8717V36.2682C19.8717 42.3528 15.6814 47.3465 10.4078 47.718L4.36101 79.1628ZM83.6944 83.5825H4.30678L5.60105 91.1101H82.4007L83.6944 83.5825Z" fill="#D79947"/>
</g>
<defs>
<clipPath id="clip0">
<rect width="88" height="100" fill="white"/>
</clipPath>
</defs>
</svg>
