<svg width="72" height="102" viewBox="0 0 72 102" fill="none" xmlns="http://www.w3.org/2000/svg">
<path d="M37.0968 0.3004C34.8199 0.287333 32.2316 0.468747 29.5467 0.899226C27.4702 1.23216 20.3228 3.68678 19.8193 7.45808C19.7793 7.75713 19.9815 10.5269 19.8786 11.298C19.7757 12.0691 19.4409 13.8859 18.9017 15.0363C18.0696 16.8116 17.6552 17.2002 16.1612 17.6055C15.1931 17.8682 13.4617 18.4375 12.2408 18.8984C10.3271 19.6208 8.95808 19.8686 7.84753 23.0929C5.81486 28.9945 5.4934 31.8827 3.19767 45.6604C-0.0975023 65.4363 -0.0498572 71.0021 0.757039 78.725C1.94433 90.0886 3.08788 94.3656 5.21217 95.3869C6.40627 95.961 7.16423 97.4096 7.78956 100.312C8.04367 101.492 8.15696 101.548 9.6902 101.262C11.4964 100.925 12.2001 100.505 13.5618 98.9494C14.32 98.0836 14.42 97.6117 14.1291 96.2792C12.881 90.5639 12.6939 88.8063 12.7618 83.4492C12.8158 79.1838 13.1601 75.7818 13.9854 71.3583C15.9389 60.8881 16.9335 50.0622 17.1374 50.266C17.3229 50.4513 16.7636 62.7797 15.2494 77.4107C14.8798 80.9812 14.6865 84.0787 14.8198 84.2941C14.953 84.5095 15.1341 86.4075 15.2223 88.5117C15.3201 90.8433 15.5882 92.4644 15.9087 92.6623C16.5435 93.0543 26.6527 93.515 35.097 93.5568C35.3377 93.5582 35.2381 92.7075 35.3084 92.7078C35.5941 92.7091 35.8777 92.7096 36.1588 92.71C36.2272 92.7101 36.2066 93.5602 36.3632 93.5602C43.9632 93.5602 54.9047 92.8209 55.9961 92.2373C57.2737 91.5542 57.5064 83.2383 56.4578 75.7398C55.3623 67.9063 54.5468 52.5932 54.748 50.3169L54.9033 48.5582L55.6822 50.9764C56.584 53.776 57.3536 64.9987 58.8354 78.0845C59.8761 87.2752 61.3277 87.304 60.9379 89.8562C60.7194 91.2865 60.6078 93.7773 60.69 95.3914L60.8396 98.3263L62.454 99.1922C63.3594 99.6347 64.7391 100.021 65.5586 99.9744C66.9769 99.8945 67.0618 99.794 67.3193 97.8897C67.4785 96.7119 68.2025 95.0315 69.0797 93.804C70.4161 91.9339 70.6267 91.1618 71.1228 86.3171C71.6197 81.4652 71.0956 82.1635 71.0818 76.6346C71.0597 67.7336 69.5058 49.1852 66.5236 34.003C65.1831 27.1784 64.3884 22.3887 63.2156 20.6002C62.4811 19.4802 58.9648 18.3987 56.0953 17.5414C54.6198 17.1005 52.9161 16.2751 52.9161 15.5C52.9161 14.9596 52.2621 9.85577 52.5667 7.6464C52.7901 6.02579 50.3099 3.83791 48.4621 2.90048C46.9274 2.12189 45.5078 1.53022 42.7783 0.869621C41.3392 0.521311 39.3737 0.313643 37.0968 0.300549V0.3004ZM47.0558 10.8876C47.1936 10.8876 47.3258 10.9423 47.4232 11.0397C47.5207 11.137 47.5754 11.2691 47.5755 11.4067C47.5755 11.5445 47.5207 11.6765 47.4233 11.7739C47.3259 11.8713 47.1937 11.9261 47.0558 11.9261C46.9876 11.9261 46.92 11.9127 46.8569 11.8866C46.7938 11.8605 46.7365 11.8222 46.6883 11.774C46.64 11.7258 46.6017 11.6685 46.5756 11.6055C46.5495 11.5425 46.536 11.4749 46.536 11.4067C46.5361 11.269 46.5909 11.137 46.6883 11.0396C46.7858 10.9422 46.918 10.8876 47.0558 10.8876V10.8876ZM24.8025 11.3875C24.8707 11.3875 24.9383 11.4009 25.0014 11.427C25.0645 11.4531 25.1218 11.4914 25.1701 11.5396C25.2183 11.5878 25.2566 11.6451 25.2828 11.7081C25.3089 11.7711 25.3223 11.8387 25.3223 11.9069C25.3223 11.9751 25.3089 12.0426 25.2828 12.1057C25.2566 12.1687 25.2183 12.2259 25.1701 12.2742C25.1218 12.3224 25.0645 12.3607 25.0014 12.3868C24.9383 12.4129 24.8707 12.4263 24.8025 12.4263C24.7342 12.4263 24.6666 12.4129 24.6035 12.3868C24.5405 12.3607 24.4831 12.3224 24.4349 12.2742C24.3866 12.226 24.3483 12.1687 24.3222 12.1057C24.2961 12.0426 24.2826 11.9751 24.2826 11.9069C24.2826 11.8387 24.2961 11.7711 24.3222 11.7081C24.3483 11.6451 24.3866 11.5878 24.4349 11.5396C24.4831 11.4914 24.5405 11.4531 24.6035 11.427C24.6666 11.4009 24.7342 11.3875 24.8025 11.3875V11.3875Z" fill="#D79947" stroke="black" stroke-width="0.599732"/>
<path d="M60.7338 91.9332C63.3672 93.0501 66.017 95.6266 68.2831 95.1187M24.8606 9.93524C24.8606 9.93524 27.3191 5.74007 29.5155 5.66447C34.5486 5.49125 37.5127 5.28262 42.4734 5.46984C44.2365 5.53638 47.739 9.6353 47.739 9.6353L24.8606 9.93524ZM52.9017 15.2541C50.8657 14.8442 48.586 14.7992 45.1081 15.2345C43.0202 15.4958 42.3959 17.1541 39.5343 18.5851L52.9017 15.2541ZM18.6104 15.6317C23.2806 14.8556 27.9856 15.9249 32.7283 18.9931L18.6104 15.6317ZM52.1306 6.08849C52.7269 7.42666 51.0916 10.1394 46.6398 9.55442C42.749 9.04318 40.2422 9.06481 40.2422 9.06481C38.5548 12.1907 37.0943 15.8224 36.4298 20.1747L35.4779 20.2307C34.3385 16.3918 33.3352 12.5391 31.6394 8.7928C29.9787 8.8744 27.6688 9.9091 24.8606 9.93524C19.8988 9.98142 19.8117 7.50547 20.0839 6.52624L52.1306 6.08849ZM5.96289 95.9178C10.244 96.4868 11.163 94.9678 13.324 92.3058L5.96289 95.9178ZM15.3176 90.0263C21.8999 90.426 28.5279 90.6511 35.2602 90.64L15.3176 90.0263ZM36.2538 90.6365C42.9966 90.6021 49.8464 90.3286 56.862 89.7545L36.2538 90.6365Z" stroke="black" stroke-width="0.599732" stroke-linecap="round" stroke-linejoin="round"/>
<path d="M36.5718 20.1842L36.2499 20.2059C36.2573 20.3168 36.2648 20.4277 36.2721 20.5387L35.6211 20.5818C35.6137 20.4711 35.6063 20.3603 35.5989 20.2496L35.2772 20.2712C35.3018 20.6368 35.3258 21.0023 35.3492 21.3679L36.6442 21.2849C36.6206 20.918 36.5965 20.5511 36.5718 20.1843V20.1842ZM36.2864 20.7558C36.2938 20.8667 36.301 20.9777 36.3082 21.0887L35.6571 21.1308C35.6499 21.02 35.6427 20.9093 35.6354 20.7985L36.2864 20.7558ZM36.6442 21.2849L36.3222 21.3056C36.3293 21.4165 36.3364 21.5275 36.3434 21.6384L35.6922 21.6796C35.6852 21.5688 35.6782 21.458 35.671 21.3473L35.3492 21.3679C35.3727 21.7335 35.3956 22.0992 35.4179 22.4648L36.7131 22.3859C36.6906 22.0189 36.6677 21.6519 36.6441 21.2849L36.6442 21.2849ZM36.3571 21.8556C36.364 21.9666 36.3709 22.0776 36.3778 22.1885L35.7265 22.2286C35.7197 22.1179 35.7128 22.0071 35.7059 21.8963L36.3571 21.8556ZM36.7131 22.3859L36.3911 22.4055C36.3979 22.5165 36.4046 22.6275 36.4112 22.7385L35.7599 22.7775C35.7533 22.6668 35.7466 22.556 35.7398 22.4452L35.4179 22.4648C35.4402 22.8305 35.462 23.1962 35.4831 23.5619L36.7786 23.4871C36.7574 23.12 36.7355 22.7529 36.7131 22.3859H36.7131ZM36.4242 22.9557C36.4308 23.0667 36.4373 23.1777 36.4439 23.2887L35.7925 23.3267C35.786 23.2159 35.7795 23.1051 35.7729 22.9943L36.4242 22.9557ZM36.7786 23.4871L36.4565 23.5057C36.4629 23.6167 36.4692 23.7277 36.4756 23.8388L35.8242 23.8757C35.8179 23.7649 35.8115 23.6541 35.8051 23.5433L35.4831 23.5619C35.5043 23.9277 35.5249 24.2934 35.5448 24.6592L36.8405 24.5886C36.8205 24.2214 36.7998 23.8543 36.7786 23.4871L36.7786 23.4871ZM36.4879 24.056C36.4941 24.167 36.5003 24.2781 36.5064 24.3891L35.8549 24.425C35.8488 24.3142 35.8426 24.2034 35.8364 24.0926L36.4879 24.056ZM36.8405 24.5886L36.5183 24.6061C36.5244 24.7172 36.5304 24.8282 36.5363 24.9393L35.8848 24.9741C35.8788 24.8632 35.8729 24.7524 35.8668 24.6416L35.5448 24.6592C35.5648 25.0249 35.5841 25.3907 35.6028 25.7566L36.8988 25.6903C36.88 25.323 36.8605 24.9558 36.8405 24.5886H36.8405ZM36.5479 25.1566C36.5537 25.2676 36.5596 25.3787 36.5653 25.4897L35.9137 25.5235C35.9079 25.4126 35.9022 25.3018 35.8963 25.191L36.5479 25.1566ZM36.8988 25.6903L36.5765 25.7068C36.5822 25.8179 36.5878 25.9289 36.5934 26.04L35.9417 26.0726C35.9362 25.9618 35.9306 25.851 35.9249 25.7401L35.6028 25.7566C35.6215 26.1224 35.6397 26.4883 35.6572 26.8542L36.9533 26.7924C36.9357 26.425 36.9176 26.0577 36.8988 25.6904L36.8988 25.6903ZM36.6042 26.2573C36.6097 26.3684 36.6152 26.4795 36.6206 26.5906L35.9688 26.6221C35.9635 26.5112 35.958 26.4004 35.9526 26.2895L36.6042 26.2573ZM36.9533 26.7923L36.631 26.8077C36.6363 26.9188 36.6416 27.0298 36.6467 27.1409L35.995 27.1713C35.9898 27.0605 35.9846 26.9496 35.9793 26.8388L35.6572 26.8541C35.6746 27.22 35.6915 27.5859 35.7077 27.9518L37.004 27.8945C36.9878 27.5271 36.9708 27.1597 36.9533 26.7923H36.9533ZM36.6568 27.3583C36.6619 27.4694 36.667 27.5805 36.672 27.6916L36.0202 27.7209C36.0152 27.61 36.0102 27.4991 36.0051 27.3883L36.6568 27.3583ZM37.004 27.8945L36.6817 27.9088C36.6866 28.0199 36.6915 28.131 36.6963 28.2421L36.0444 28.2702C36.0396 28.1593 36.0348 28.0485 36.0299 27.9376L35.7077 27.9519C35.7239 28.3178 35.7395 28.6837 35.7544 29.0497L37.0509 28.9969C37.0359 28.6294 37.0203 28.262 37.004 27.8945L37.004 27.8945ZM36.7056 28.4595C36.7103 28.5706 36.715 28.6817 36.7196 28.7928L36.0677 28.8198C36.0631 28.7089 36.0584 28.598 36.0537 28.4872L36.7056 28.4595ZM37.0509 28.9969L36.7285 29.01C36.733 29.1211 36.7375 29.2323 36.7419 29.3434L36.09 29.3692C36.0855 29.2583 36.0811 29.1474 36.0766 29.0366L35.7544 29.0497C35.7693 29.4156 35.7835 29.7816 35.7971 30.1476L37.0938 30.0995C37.0801 29.732 37.0658 29.3644 37.0509 28.9969L37.0509 28.9969ZM36.7505 29.5608C36.7549 29.672 36.7591 29.7831 36.7633 29.8942L36.1113 29.9188C36.1073 29.8079 36.1028 29.697 36.0985 29.5862L36.7505 29.5608ZM37.0938 30.0995L36.7714 30.1115C36.7754 30.2226 36.7796 30.3337 36.7836 30.4449L36.1315 30.4683C36.1276 30.3574 36.1235 30.2465 36.1194 30.1356L35.7971 30.1475C35.8107 30.5135 35.8237 30.8795 35.8359 31.2455L37.1327 31.2022C37.1204 30.8346 37.1074 30.467 37.0938 30.0995L37.0938 30.0995ZM36.7913 30.6623C36.7953 30.7735 36.7991 30.8846 36.8029 30.9958L36.1508 31.018C36.1468 30.9071 36.1432 30.7962 36.1393 30.6853L36.7913 30.6623ZM37.1327 31.2023L36.8102 31.213C36.8138 31.3242 36.8176 31.4353 36.8212 31.5465L36.1691 31.5675C36.1655 31.4566 36.1619 31.3457 36.1581 31.2348L35.8358 31.2456C35.8481 31.6116 35.8597 31.9776 35.8705 32.3436L37.1675 32.3052C37.1566 31.9376 37.1449 31.5699 37.1327 31.2023L37.1327 31.2023ZM36.8281 31.764C36.8317 31.8751 36.8351 31.9863 36.8385 32.0974L36.1863 32.1173C36.1828 32.0063 36.1795 31.8954 36.176 31.7845L36.8281 31.764ZM37.1675 32.3052L36.845 32.3148C36.8481 32.4259 36.8515 32.5371 36.8547 32.6482L36.2025 32.6668C36.1994 32.5559 36.1962 32.445 36.1929 32.3341L35.8705 32.3436C35.8814 32.7096 35.8916 33.0757 35.9011 33.4417L37.1981 33.4083C37.1886 33.0406 37.1784 32.6729 37.1675 32.3052H37.1675ZM36.8608 32.8658C36.8639 32.9769 36.8669 33.0881 36.8699 33.1993L36.2177 33.2166C36.2146 33.1057 36.2117 32.9948 36.2086 32.8838L36.8608 32.8658ZM37.1981 33.4083L36.8756 33.4166C36.8782 33.5278 36.8812 33.6389 36.884 33.7501L36.2318 33.7662C36.2291 33.6553 36.2262 33.5443 36.2233 33.4334L35.901 33.4418C35.9104 33.8078 35.9192 34.1739 35.9272 34.5399L37.2244 34.5115C37.2163 34.1438 37.2076 33.776 37.1981 33.4083L37.1981 33.4083ZM36.8893 33.9677C36.8919 34.0788 36.8945 34.19 36.897 34.3012L36.2448 34.316C36.2421 34.2051 36.2397 34.0941 36.237 33.9832L36.8893 33.9677ZM37.2244 34.5115L36.9019 34.5186C36.9041 34.6297 36.9067 34.7409 36.909 34.8521L36.2568 34.8656C36.2545 34.7547 36.2521 34.6438 36.2497 34.5329L35.9273 34.5399C35.9353 34.906 35.9426 35.272 35.9492 35.6381L37.2465 35.6148C37.2399 35.247 37.2325 34.8792 37.2245 34.5115L37.2244 34.5115ZM36.9134 35.0697C36.9157 35.1809 36.9179 35.292 36.9199 35.4032L36.2676 35.4155C36.2654 35.3045 36.2632 35.1936 36.2612 35.0827L36.9134 35.0697ZM37.2465 35.6148L36.9239 35.6206C36.9261 35.7318 36.9279 35.843 36.9297 35.9542L36.2774 35.9651C36.2756 35.8542 36.2734 35.7433 36.2716 35.6323L35.9492 35.6381C35.9558 36.0042 35.9617 36.3703 35.9667 36.7364L37.2641 36.7183C37.2589 36.3505 37.2531 35.9826 37.2465 35.6148L37.2465 35.6148ZM36.9332 36.1718C36.935 36.283 36.9368 36.3942 36.9384 36.5054L36.2861 36.515C36.2843 36.404 36.2825 36.2931 36.281 36.1822L36.9332 36.1718ZM37.2641 36.7182L36.9415 36.7227C36.9433 36.8339 36.9446 36.9451 36.9459 37.0563L36.2936 37.0646C36.2923 36.9537 36.2905 36.8427 36.2892 36.7318L35.9667 36.7363C35.9718 37.1023 35.9762 37.4684 35.9798 37.8345L37.2772 37.8217C37.2736 37.4539 37.2692 37.086 37.2641 36.7182L37.2641 36.7182ZM36.9486 37.2739C36.9499 37.3851 36.9513 37.4963 36.9522 37.6076L36.2998 37.6145C36.2985 37.5036 36.2976 37.3926 36.2963 37.2817L36.9486 37.2739ZM37.2772 37.8218L36.9546 37.8249C36.9555 37.9361 36.9568 38.0473 36.9577 38.1585L36.3054 38.1641C36.3045 38.0531 36.3036 37.9422 36.3023 37.8313L35.9798 37.8344C35.9834 38.2004 35.9863 38.5665 35.9884 38.9326L37.2858 38.9252C37.2836 38.5573 37.2808 38.1895 37.2772 37.8216L37.2772 37.8218ZM36.9595 38.3762C36.9603 38.4874 36.9612 38.5986 36.9617 38.7098L36.3093 38.7142C36.3084 38.6033 36.308 38.4924 36.3071 38.3814L36.9595 38.3762ZM37.2858 38.9254L36.9632 38.9271C36.9636 39.0384 36.9645 39.1496 36.9649 39.2608L36.3126 39.2634C36.3121 39.1525 36.3117 39.0416 36.3108 38.9306L35.9884 38.9324C35.9906 39.2985 35.9919 39.6645 35.9924 40.0306L37.2898 40.0288C37.2893 39.6609 37.288 39.293 37.2858 38.9251L37.2858 38.9254ZM36.9657 39.4785C36.9661 39.5897 36.9666 39.7009 36.9666 39.8121L36.3142 39.8134C36.314 39.7025 36.3138 39.5916 36.3133 39.4806L36.9657 39.4785ZM37.2897 40.029L36.9671 40.0295C36.9673 40.1407 36.9673 40.2519 36.9674 40.3631L36.315 40.3632C36.315 40.2523 36.3149 40.1414 36.3147 40.0304L35.9923 40.0309C35.9927 40.3969 35.9926 40.763 35.9914 41.129L37.2888 41.1325C37.2897 40.7646 37.2901 40.3967 37.2897 40.0288L37.2897 40.029ZM36.9673 40.5808C36.9672 40.692 36.9671 40.8032 36.9669 40.9144L36.3145 40.9131C36.3147 40.8022 36.3149 40.6912 36.3149 40.5803L36.9673 40.5808ZM37.2889 41.1328L36.9663 41.1319C36.966 41.2431 36.9654 41.3543 36.965 41.4655L36.3126 41.4629C36.3131 41.3519 36.3135 41.241 36.3139 41.1301L35.9915 41.1292C35.9906 41.4952 35.9884 41.8613 35.986 42.2273L37.2834 42.2367C37.286 41.8687 37.2879 41.5008 37.2889 41.1329L37.2889 41.1328ZM36.9641 41.6831C36.9637 41.7943 36.9628 41.9056 36.9624 42.0168L36.31 42.0128C36.3109 41.9019 36.3113 41.7909 36.3118 41.68L36.9641 41.6831ZM37.2833 42.2365L36.9607 42.2343C36.9599 42.3455 36.959 42.4567 36.9581 42.5679L36.3057 42.5624C36.3066 42.4514 36.3075 42.3405 36.3084 42.2296L35.986 42.2274C35.9833 42.5934 35.9799 42.9594 35.9756 43.3254L37.2729 43.3405C37.2774 42.9726 37.2807 42.6047 37.2833 42.2368L37.2833 42.2365ZM36.9562 42.7855C36.9553 42.8967 36.9539 43.0079 36.9526 43.1191L36.3003 43.1121C36.3016 43.0011 36.3025 42.8902 36.3038 42.7793L36.9562 42.7855ZM37.2729 43.3403L36.9503 43.3363C36.949 43.4475 36.9477 43.5587 36.9463 43.6699L36.294 43.6614C36.2953 43.5505 36.2967 43.4396 36.298 43.3287L35.9756 43.3247C35.9711 43.6907 35.9662 44.0567 35.9602 44.4226L37.2575 44.4436C37.2635 44.0757 37.2686 43.7078 37.2729 43.3398V43.3403ZM36.9433 43.8878C36.9419 43.999 36.9402 44.1102 36.9384 44.2214L36.2861 44.2115C36.2878 44.1006 36.2892 43.9896 36.2909 43.8787L36.9433 43.8878ZM37.2575 44.4441L36.935 44.4388C36.9332 44.55 36.9314 44.6613 36.9293 44.7725L36.277 44.761C36.2788 44.6501 36.281 44.5392 36.2827 44.4283L35.9603 44.4231C35.9543 44.789 35.9475 45.155 35.94 45.5209L37.2372 45.5478C37.2448 45.1799 37.2516 44.812 37.2576 44.4441L37.2575 44.4441ZM36.9254 44.9901C36.9232 45.1013 36.9214 45.2125 36.919 45.3238L36.2667 45.3108C36.269 45.1999 36.2712 45.089 36.2731 44.9781L36.9254 44.9901ZM37.2371 45.5478L36.9146 45.5411C36.9124 45.6523 36.9099 45.7636 36.9074 45.8748L36.2551 45.8603C36.2578 45.7494 36.26 45.6385 36.2623 45.5276L35.9399 45.5209C35.935 45.7579 35.9297 45.9949 35.924 46.2318C35.9209 46.3607 35.9178 46.4895 35.9144 46.6184L37.2115 46.6518C37.2151 46.5221 37.2181 46.3924 37.2212 46.2626C37.2269 46.0244 37.2321 45.7861 37.2371 45.5478L37.2371 45.5478ZM36.9025 46.0924C36.9012 46.1466 36.8998 46.2008 36.8985 46.255C36.8972 46.312 36.8959 46.369 36.8945 46.4261L36.2423 46.41C36.2436 46.3532 36.2449 46.2963 36.2463 46.2395C36.2476 46.1854 36.2489 46.1314 36.2503 46.0773L36.9025 46.0924ZM37.2116 46.6518L36.8891 46.6435C36.8864 46.7547 36.8832 46.8659 36.8802 46.9771L36.228 46.9593C36.2311 46.8484 36.234 46.7375 36.2369 46.6267L35.9145 46.6184C35.9051 46.9841 35.8946 47.3499 35.8833 47.7158L37.1803 47.7557C37.1916 47.3879 37.2021 47.0199 37.2116 46.6518L37.2116 46.6518ZM36.8741 47.1948C36.871 47.306 36.8677 47.4172 36.8644 47.5284L36.2122 47.5089C36.2153 47.398 36.2188 47.2871 36.2219 47.1763L36.8741 47.1948ZM37.1803 47.7557L36.8578 47.7457C36.8542 47.8569 36.8509 47.9681 36.8473 48.0793L36.1951 48.0584C36.1987 47.9475 36.2022 47.8366 36.2056 47.7257L35.8833 47.7158C35.872 48.0817 35.8599 48.4476 35.8471 48.8137L37.144 48.8588C37.1568 48.4912 37.1689 48.1235 37.1803 47.7557L37.1803 47.7557ZM36.8402 48.2968C36.8367 48.408 36.8328 48.5191 36.829 48.6303L36.1769 48.6081C36.1809 48.4972 36.1844 48.3863 36.1881 48.2754L36.8402 48.2968ZM37.144 48.8588L36.8215 48.8475C36.8176 48.9587 36.8137 49.0698 36.8097 49.1809L36.1577 49.1577C36.1617 49.0467 36.1656 48.9358 36.1694 48.8249L35.8471 48.8137C35.8344 49.1798 35.821 49.5459 35.8071 49.9122L37.1039 49.9611C37.1178 49.5938 37.1312 49.2263 37.144 48.8588L37.144 48.8588ZM36.8019 49.3984C36.7979 49.5095 36.7938 49.6206 36.7896 49.7318L36.1376 49.7075C36.1416 49.5965 36.1458 49.4856 36.1499 49.3747L36.8019 49.3984ZM37.1039 49.9611L36.7815 49.9489C36.7775 50.06 36.7731 50.1711 36.7688 50.2822L36.1167 50.2571C36.1212 50.1462 36.1252 50.0352 36.1294 49.9243L35.8071 49.9122C35.7933 50.2784 35.779 50.6448 35.7644 51.0112L37.0611 51.0627C37.0757 50.6956 37.09 50.3284 37.1039 49.9611L37.1039 49.9611ZM36.7604 50.4996C36.7559 50.6107 36.7517 50.7218 36.7473 50.8328L36.0953 50.8071C36.0997 50.6962 36.104 50.5852 36.1083 50.4743L36.7604 50.4996ZM37.0611 51.0627L36.7387 51.0499C36.7343 51.161 36.7299 51.272 36.7254 51.3831L36.0734 51.3569C36.0779 51.246 36.0823 51.135 36.0867 51.024L35.7645 51.0112C35.7499 51.3777 35.7351 51.7443 35.7201 52.1109L37.0168 52.1636C37.0317 51.7967 37.0465 51.4298 37.0611 51.0627L37.0611 51.0627ZM36.7167 51.6004C36.7122 51.7114 36.7077 51.8225 36.7032 51.9335L36.0512 51.9071C36.0557 51.7961 36.0602 51.6851 36.0647 51.5742L36.7167 51.6004ZM37.0168 52.1636L36.6944 52.1506C36.6899 52.2616 36.6853 52.3726 36.6808 52.4836L36.0288 52.4571C36.0333 52.3461 36.0379 52.2351 36.0424 52.1241L35.7201 52.111C35.7053 52.4777 35.6902 52.8445 35.6753 53.2114L36.972 53.2639C36.9869 52.8973 37.0019 52.5305 37.0168 52.1637L37.0168 52.1636ZM36.672 52.7008C36.6674 52.8118 36.6629 52.9228 36.6584 53.0338L36.0064 53.0073C36.0109 52.8963 36.0155 52.7853 36.02 52.6743L36.672 52.7008ZM36.972 53.2639L36.6496 53.2508C36.645 53.3618 36.6406 53.4728 36.6361 53.5838L35.9841 53.5575C35.9886 53.4465 35.9931 53.3354 35.9976 53.2244L35.6753 53.2113C35.6604 53.5782 35.6457 53.9452 35.6312 54.3123L36.9278 54.3635C36.9423 53.997 36.9571 53.6305 36.972 53.2639H36.972ZM36.6273 53.8009C36.6228 53.9119 36.6184 54.0229 36.614 54.1338L35.962 54.1079C35.9665 53.9969 35.9709 53.8858 35.9754 53.7748L36.6273 53.8009ZM36.9278 54.3634L36.6054 54.3507C36.601 54.4617 36.5967 54.5726 36.5923 54.6836L35.9403 54.6582C35.9448 54.5471 35.949 54.4361 35.9534 54.325L35.6312 54.3123C35.6167 54.6794 35.6025 55.0466 35.5887 55.414L36.8854 55.4624C36.8991 55.0961 36.9133 54.7298 36.9278 54.3634L36.9278 54.3634ZM36.5839 54.9007C36.5795 55.0116 36.5754 55.1226 36.5712 55.2335L35.9192 55.2088C35.9232 55.0977 35.9277 54.9866 35.9319 54.8756L36.5839 54.9007ZM36.8854 55.4624L36.563 55.4503C36.559 55.5613 36.5548 55.6722 36.5507 55.7831L35.8987 55.7593C35.9027 55.6482 35.9068 55.5371 35.911 55.426L35.5887 55.414C35.575 55.7813 35.5618 56.1487 35.5492 56.5163L36.8459 56.5607C36.8585 56.1947 36.8717 55.8286 36.8854 55.4623L36.8854 55.4624ZM36.5428 56.0002C36.5388 56.1111 36.5349 56.222 36.531 56.3329L35.879 56.3101C35.883 56.199 35.8868 56.0879 35.8908 55.9767L36.5428 56.0002ZM36.8459 56.5607L36.5235 56.5497C36.5195 56.6606 36.516 56.7714 36.5123 56.8823L35.8602 56.8608C35.8638 56.7496 35.8677 56.6385 35.8715 56.5273L35.5492 56.5163C35.5366 56.8839 35.5247 57.2516 35.5136 57.6194L36.8105 57.6584C36.8215 57.2926 36.8334 56.9267 36.8459 56.5607L36.8459 56.5607ZM36.5052 57.0993C36.5016 57.2102 36.4981 57.3211 36.4946 57.432L35.8426 57.4118C35.8461 57.3006 35.8495 57.1894 35.8531 57.0783L36.5052 57.0993ZM36.8105 57.6584L36.488 57.6487C36.4845 57.7596 36.4814 57.8705 36.4782 57.9813L35.8261 57.9627C35.8292 57.8515 35.8325 57.7403 35.8359 57.6291L35.5136 57.6194C35.5025 57.9872 35.4923 58.3552 35.4832 58.7232L36.7801 58.7555C36.7892 58.3899 36.7994 58.0242 36.8104 57.6584L36.8105 57.6584ZM36.4721 58.1983C36.469 58.3091 36.4661 58.42 36.4632 58.5308L35.811 58.5139C35.8141 58.4026 35.8169 58.2914 35.82 58.1802L36.4721 58.1983ZM36.7801 58.7555L36.4576 58.7475C36.455 58.8584 36.4522 58.9692 36.4496 59.0801L35.7975 59.065C35.8001 58.9537 35.8027 58.8425 35.8055 58.7313L35.4832 58.7233C35.474 59.0913 35.4659 59.4595 35.459 59.8278L36.756 59.8522C36.7629 59.4867 36.771 59.1212 36.7801 58.7556L36.7801 58.7555ZM36.4447 59.2969C36.4425 59.4078 36.4399 59.5186 36.4377 59.6294L35.7855 59.6164C35.7877 59.5051 35.7901 59.3939 35.7925 59.2826L36.4447 59.2969ZM36.756 59.8521L36.4335 59.8461C36.4313 59.9569 36.4295 60.0678 36.4276 60.1786L35.7754 60.1677C35.7772 60.0564 35.7794 59.9452 35.7813 59.8339L35.459 59.8279C35.4521 60.1962 35.4464 60.5647 35.4421 60.9333L36.7393 60.9483C36.7438 60.583 36.7492 60.2176 36.756 59.8522L36.756 59.8521ZM36.4241 60.3954C36.4224 60.5062 36.421 60.617 36.4194 60.7279L35.7672 60.7194C35.7685 60.6081 35.7703 60.4967 35.7719 60.3855L36.4241 60.3954ZM36.7393 60.9482L36.4168 60.9446C36.4154 61.0555 36.4145 61.1663 36.4132 61.2771L35.7609 61.2711C35.7618 61.1597 35.7631 61.0484 35.7645 60.9371L35.4421 60.9336C35.4376 61.3022 35.4349 61.6709 35.4336 62.0398L36.731 62.0442C36.7324 61.6791 36.735 61.3139 36.7393 60.9486L36.7393 60.9482ZM36.4115 61.4937C36.4106 61.6045 36.4102 61.7153 36.4093 61.8261L35.7569 61.823C35.7574 61.7116 35.7583 61.6003 35.7591 61.4889L36.4115 61.4937ZM36.7311 62.0437L36.4085 62.0428C36.4081 62.1536 36.408 62.2644 36.408 62.3752L35.7556 62.3748C35.7557 62.2634 35.756 62.152 35.7565 62.0407L35.4341 62.0398C35.4332 62.2476 35.4332 62.4554 35.4337 62.6632C35.4339 62.8234 35.4341 62.9835 35.4341 63.1437L36.7316 63.1423C36.7315 62.9819 36.7312 62.8215 36.7307 62.6611C36.7304 62.4555 36.7305 62.2498 36.7312 62.0442L36.7311 62.0437ZM36.4079 62.5918C36.4079 62.6149 36.4079 62.638 36.408 62.6612C36.4081 62.7491 36.4083 62.837 36.4084 62.925L35.756 62.9258C35.7558 62.838 35.7557 62.7501 35.7556 62.6623C35.7555 62.639 35.7555 62.6158 35.7555 62.5925L36.4079 62.5918ZM36.7313 63.1419L36.4087 63.1422C36.4088 63.2533 36.4089 63.3645 36.4089 63.4756L35.7565 63.476C35.7564 63.365 35.7563 63.2539 35.7562 63.1429L35.4338 63.1432C35.4341 63.5099 35.4342 63.8766 35.4341 64.2433L36.7316 64.2437C36.7318 63.8764 36.7317 63.509 36.7313 63.1417V63.1419ZM36.409 63.6931C36.4091 63.8042 36.4091 63.9154 36.4091 64.0265L35.7566 64.0264C35.7566 63.9154 35.7566 63.8043 35.7566 63.6933L36.409 63.6931ZM36.7316 64.2439L36.409 64.2437C36.4089 64.3549 36.4089 64.466 36.4088 64.5772L35.7563 64.5767C35.7564 64.4657 35.7565 64.3547 35.7566 64.2436L35.4341 64.2435C35.4339 64.6101 35.4337 64.9768 35.4328 65.3434L36.7303 65.3461C36.7312 64.9787 36.7316 64.6114 36.7316 64.244V64.2439ZM36.4085 64.7946C36.4084 64.9058 36.4082 65.0169 36.4081 65.1281L35.7556 65.1267C35.7558 65.0157 35.756 64.9047 35.7561 64.7936L36.4085 64.7946ZM36.7302 65.346L36.4076 65.3451C36.4074 65.4563 36.4071 65.5674 36.4067 65.6785L35.7543 65.6767C35.7546 65.5657 35.7547 65.4547 35.7552 65.3437L35.4327 65.3428C35.4318 65.7094 35.4309 66.0761 35.4296 66.4427L36.7271 66.4477C36.7284 66.0803 36.7298 65.7129 36.7302 65.3455L36.7302 65.346ZM36.4062 65.8962C36.4059 66.0074 36.4053 66.1185 36.4053 66.2297L35.7529 66.2274C35.7533 66.1164 35.7538 66.0054 35.7538 65.8944L36.4062 65.8962ZM36.727 66.4481L36.4043 66.4468C36.4039 66.558 36.4034 66.6691 36.403 66.7803L35.7506 66.7776C35.751 66.6666 35.7515 66.5555 35.7519 66.4445L35.4294 66.4432C35.4281 66.8098 35.4263 67.1764 35.4242 67.543L36.7217 67.5504C36.7239 67.183 36.7257 66.8156 36.7269 66.4482L36.727 66.4481ZM36.402 66.9978C36.4015 67.109 36.4011 67.2201 36.4002 67.3313L35.7478 67.3277C35.7482 67.2167 35.7491 67.1057 35.7495 66.9947L36.402 66.9978ZM36.7217 67.5504L36.3991 67.5486C36.3987 67.6597 36.3978 67.7709 36.3973 67.882L35.7449 67.878C35.7458 67.767 35.7462 67.656 35.7467 67.545L35.4242 67.5432C35.422 67.9098 35.4198 68.2764 35.417 68.643L36.7144 68.6528C36.7171 68.2854 36.7197 67.918 36.7217 67.5505L36.7217 67.5504ZM36.3957 68.0995C36.3948 68.2106 36.3944 68.3218 36.3935 68.4329L35.7411 68.4282C35.742 68.3172 35.7429 68.2062 35.7433 68.0952L36.3957 68.0995ZM36.7144 68.6526L36.3918 68.65C36.3909 68.7611 36.3901 68.8722 36.3892 68.9834L35.7368 68.9781C35.7376 68.8671 35.7385 68.756 35.7394 68.645L35.417 68.6424C35.4143 69.009 35.411 69.3755 35.4075 69.7421L36.705 69.7545C36.7085 69.3871 36.7117 69.0196 36.7145 68.6522L36.7144 68.6526ZM36.3874 69.2011C36.3865 69.3123 36.3856 69.4234 36.3843 69.5345L35.7319 69.5286C35.7328 69.4176 35.7341 69.3066 35.735 69.1955L36.3874 69.2011ZM36.705 69.7549L36.3824 69.7518C36.3815 69.863 36.3801 69.9741 36.3793 70.0853L35.7269 70.0786C35.7282 69.9676 35.7291 69.8565 35.73 69.7455L35.4075 69.7424C35.404 70.109 35.4001 70.4755 35.3958 70.842L36.6932 70.8572C36.6976 70.4898 36.7014 70.1223 36.7049 69.7549L36.705 69.7549ZM36.3768 70.3028C36.3754 70.4139 36.3746 70.525 36.3732 70.6362L35.7208 70.6288C35.7222 70.5178 35.7235 70.4068 35.7244 70.2958L36.3768 70.3028ZM36.6932 70.8572L36.3706 70.8533C36.3693 70.9644 36.3679 71.0756 36.3666 71.1867L35.7142 71.1787C35.7156 71.0676 35.7169 70.9566 35.7182 70.8456L35.3958 70.8416C35.3914 71.2082 35.3868 71.5746 35.3817 71.9411L36.6791 71.9592C36.6842 71.5918 36.6889 71.2243 36.6932 70.8568L36.6932 70.8572ZM36.3638 71.4044C36.3625 71.5156 36.3607 71.6267 36.3594 71.7379L35.707 71.7291C35.7084 71.6181 35.7101 71.5071 35.7115 71.396L36.3638 71.4044ZM36.679 71.9596L36.3565 71.9552C36.3547 72.0663 36.3534 72.1775 36.3517 72.2886L35.6993 72.279C35.7011 72.168 35.7024 72.057 35.7041 71.946L35.3816 71.9416C35.3765 72.308 35.371 72.6745 35.365 73.0409L36.6623 73.062C36.6683 72.6946 36.6739 72.3271 36.679 71.9596L36.679 71.9596ZM36.3484 72.5061C36.3467 72.6172 36.3449 72.7284 36.3433 72.8395L35.691 72.8292C35.6927 72.7182 35.6945 72.6072 35.6961 72.4962L36.3484 72.5061ZM36.6624 73.062L36.3398 73.0568C36.338 73.1679 36.3363 73.2791 36.3343 73.3902L35.6819 73.3792C35.6837 73.2682 35.6855 73.1572 35.6875 73.0462L35.3651 73.041C35.3591 73.4074 35.3527 73.7738 35.3458 74.1403L36.6431 74.1645C36.65 73.797 36.6564 73.4295 36.6624 73.062V73.062ZM36.3305 73.6077C36.3287 73.7188 36.3265 73.83 36.3246 73.9412L35.6722 73.9293C35.6745 73.8183 35.6762 73.7073 35.6782 73.5963L36.3305 73.6077ZM36.6431 74.1644L36.3205 74.1584C36.3183 74.2696 36.3165 74.3807 36.3142 74.4918L35.6619 74.4792C35.6641 74.3682 35.6663 74.2572 35.6682 74.1462L35.3458 74.1402C35.339 74.5066 35.3317 74.873 35.3239 75.2394L36.6211 75.2669C36.6289 74.8994 36.6362 74.5319 36.6431 74.1645L36.6431 74.1644ZM36.3099 74.7093C36.3077 74.8205 36.3054 74.9316 36.3031 75.0428L35.6508 75.0293C35.653 74.9183 35.6554 74.8073 35.6576 74.6963L36.3099 74.7093ZM36.6211 75.2669L36.2986 75.26C36.2963 75.3712 36.2938 75.4823 36.2913 75.5935L35.6391 75.5792C35.6417 75.4682 35.6439 75.3572 35.6462 75.2463L35.3239 75.2394C35.3161 75.6058 35.3078 75.9722 35.2991 76.3385L36.5962 76.3694C36.605 76.0019 36.6132 75.6344 36.6211 75.2669L36.6211 75.2669ZM36.2865 75.811C36.2838 75.9221 36.2814 76.0332 36.2789 76.1444L35.6266 76.1292C35.6293 76.0182 35.6318 75.9072 35.6342 75.7963L36.2865 75.811ZM36.5963 76.3693L36.2737 76.3616C36.2711 76.4728 36.2684 76.5839 36.2657 76.6951L35.6134 76.679C35.6161 76.5681 35.6188 76.4571 35.6215 76.3461L35.2991 76.3385C35.2947 76.5241 35.2901 76.7096 35.2855 76.8952C35.2809 77.0764 35.2764 77.2577 35.272 77.4389L36.5691 77.4703C36.5736 77.2895 36.578 77.1087 36.5826 76.9279C36.5873 76.7417 36.5918 76.5555 36.5963 76.3693L36.5963 76.3693ZM36.2602 76.9125C36.2602 76.9147 36.2601 76.9173 36.2601 76.9197C36.2574 77.0283 36.2546 77.1369 36.2519 77.2455L35.5997 77.2294C35.6024 77.1207 35.6051 77.012 35.6079 76.9033C35.6079 76.9011 35.608 76.8985 35.608 76.8961L36.2602 76.9125ZM36.5692 77.4703L36.2466 77.4625C36.244 77.5735 36.2413 77.6844 36.2386 77.7954L35.5864 77.78C35.589 77.6689 35.5917 77.5577 35.5944 77.4466L35.272 77.4388C35.2631 77.8061 35.2545 78.1734 35.2463 78.5407L36.5435 78.5698C36.5517 78.2033 36.5603 77.8368 36.5692 77.4703L36.5692 77.4703ZM36.2335 78.0127C36.2308 78.1236 36.2284 78.2346 36.2258 78.3456L35.5736 78.3308C35.5762 78.2197 35.5787 78.1086 35.5813 77.9975L36.2335 78.0127ZM36.5435 78.5698L36.2209 78.5626C36.2182 78.6736 36.2159 78.7846 36.2135 78.8956L35.5612 78.8813C35.5634 78.7702 35.5661 78.6591 35.5686 78.548L35.2463 78.5408C35.238 78.9081 35.2301 79.2754 35.2225 79.6427L36.5197 79.6695C36.5273 79.3029 36.5352 78.9364 36.5434 78.5699L36.5435 78.5698ZM36.2088 79.1128C36.2066 79.2238 36.2041 79.3348 36.2017 79.4458L35.5494 79.4321C35.5516 79.321 35.5541 79.2099 35.5565 79.0988L36.2088 79.1128ZM36.5198 79.6694L36.1972 79.6628C36.195 79.7738 36.1926 79.8848 36.1904 79.9958L35.5381 79.9827C35.5403 79.8716 35.5426 79.7604 35.5449 79.6493L35.2225 79.6427C35.2149 80.01 35.2077 80.3773 35.2007 80.7446L36.498 80.7691C36.5049 80.4025 36.5122 80.036 36.5197 79.6694H36.5198ZM36.1861 80.213C36.1839 80.324 36.1816 80.435 36.1796 80.546L35.5273 80.5335C35.5295 80.4224 35.5317 80.3113 35.5338 80.2001L36.1861 80.213ZM36.498 80.7691L36.1755 80.763C36.1732 80.874 36.1715 80.9851 36.1692 81.0961L35.5169 81.0841C35.5191 80.973 35.5209 80.8618 35.5231 80.7507L35.2007 80.7447C35.1938 81.112 35.1872 81.4793 35.1809 81.8466L36.4782 81.8688C36.4845 81.5023 36.4911 81.1357 36.498 80.7691H36.498ZM36.1653 81.3133C36.1631 81.4243 36.1613 81.5353 36.1594 81.6463L35.5071 81.6349C35.5089 81.5238 35.5111 81.4127 35.513 81.3016L36.1653 81.3133ZM36.4782 81.8688L36.1557 81.8633C36.1539 81.9743 36.1517 82.0853 36.15 82.1963L35.4977 82.1855C35.4995 82.0744 35.5012 81.9633 35.5033 81.8522L35.1809 81.8466C35.1746 82.214 35.1686 82.5813 35.163 82.9486L36.4604 82.9686C36.466 82.602 36.472 82.2354 36.4783 81.8688H36.4782ZM36.1465 82.4136C36.1447 82.5246 36.1429 82.6356 36.1411 82.7466L35.4888 82.7363C35.4906 82.6252 35.4923 82.5141 35.4941 82.403L36.1465 82.4136ZM36.4603 82.9686L36.1378 82.9636C36.136 83.0747 36.1342 83.1857 36.1327 83.2967L35.4803 83.287C35.4821 83.1758 35.4839 83.0647 35.4854 82.9536L35.163 82.9486C35.1573 83.316 35.152 83.6833 35.1469 84.0506L36.4443 84.0685C36.4494 83.7018 36.4547 83.3352 36.4604 82.9686L36.4603 82.9686ZM36.1295 83.5139C36.1277 83.6249 36.1264 83.736 36.1247 83.847L35.4723 83.8378C35.4741 83.7267 35.4755 83.6156 35.4771 83.5044L36.1295 83.5139ZM36.4443 84.0684L36.1217 84.064C36.1204 84.175 36.1186 84.286 36.1172 84.397L35.4649 84.3884C35.4662 84.2773 35.468 84.1661 35.4693 84.055L35.1469 84.0506C35.1419 84.4179 35.1371 84.7853 35.1327 85.1526L36.4301 85.1682C36.4345 84.8016 36.4393 84.435 36.4443 84.0684L36.4443 84.0684ZM36.1144 84.6143C36.1131 84.7253 36.1117 84.8364 36.11 84.9474L35.4576 84.9393C35.4589 84.8282 35.4602 84.717 35.462 84.6059L36.1144 84.6143ZM36.4301 85.1683L36.1075 85.1643C36.1062 85.2753 36.1049 85.3863 36.1035 85.4973L35.4511 85.4898C35.4525 85.3787 35.4538 85.2676 35.4551 85.1564L35.1327 85.1524C35.1283 85.5198 35.1241 85.8871 35.1203 86.2545L36.4177 86.268C36.4217 85.9014 36.4257 85.5347 36.4301 85.1681L36.4301 85.1683ZM36.1011 85.7147C36.0998 85.8257 36.0984 85.9368 36.0976 86.0478L35.4452 86.0408C35.4465 85.9297 35.4474 85.8185 35.4487 85.7074L36.1011 85.7147ZM36.4177 86.2682L36.0951 86.2646C36.0938 86.3757 36.0929 86.4867 36.0916 86.5977L35.4392 86.5912C35.4401 86.4801 35.4414 86.3689 35.4427 86.2578L35.1203 86.2543C35.1163 86.6216 35.1129 86.9889 35.1096 87.3563L36.4071 87.3678C36.4102 87.0011 36.4139 86.6344 36.4178 86.2678L36.4177 86.2682ZM36.0896 86.8151C36.0887 86.9262 36.0874 87.0372 36.0865 87.1482L35.4341 87.1423C35.435 87.0311 35.4363 86.92 35.4372 86.8089L36.0896 86.8151ZM36.4071 87.3681L36.0845 87.3655C36.0836 87.4765 36.0827 87.5875 36.0818 87.6986L35.4294 87.6931C35.4303 87.582 35.4312 87.4708 35.4321 87.3597L35.1096 87.3571C35.1065 87.7244 35.1034 88.0917 35.1007 88.4591L36.3982 88.4685C36.4009 88.1019 36.4038 87.7352 36.4071 87.3685L36.4071 87.3681ZM36.0798 87.9156C36.0789 88.0267 36.0781 88.1377 36.0772 88.2487L35.4248 88.2438C35.4256 88.1326 35.4265 88.0215 35.4274 87.9104L36.0798 87.9156ZM36.3982 88.4681L36.0756 88.4659C36.0747 88.5769 36.0738 88.688 36.0734 88.799L35.421 88.7945C35.4218 88.6834 35.4223 88.5723 35.4232 88.4611L35.1007 88.4589C35.0981 88.8263 35.0956 89.1936 35.0935 89.5609L36.391 89.5684C36.3932 89.2017 36.3955 88.835 36.3982 88.4684L36.3982 88.4681ZM36.0718 89.0161C36.0709 89.1272 36.0705 89.2382 36.0696 89.3492L35.4171 89.3452C35.418 89.2341 35.4185 89.123 35.4194 89.0118L36.0718 89.0161ZM36.391 89.5681L36.0684 89.5664C36.068 89.6774 36.0671 89.7884 36.0666 89.8995L35.4142 89.8959C35.4146 89.7848 35.4155 89.6737 35.416 89.5625L35.0935 89.5608C35.0913 89.9281 35.0895 90.2954 35.088 90.6628L36.3855 90.6683C36.3873 90.3016 36.389 89.9349 36.391 89.5682L36.391 89.5681ZM36.0654 90.1166C36.065 90.2277 36.0645 90.3387 36.0637 90.4498L35.4112 90.4467C35.4117 90.3355 35.4121 90.2244 35.413 90.1133L36.0654 90.1166ZM36.3855 90.6682L36.0629 90.6669C36.0624 90.7779 36.062 90.8889 36.0615 90.9999L35.4091 90.9973C35.4095 90.8862 35.41 90.775 35.4104 90.6639L35.088 90.6626C35.0862 91.0299 35.0853 91.3972 35.084 91.7646L36.3815 91.7681C36.3824 91.4014 36.3837 91.0347 36.3855 90.668L36.3855 90.6682ZM36.0607 91.2172C36.0603 91.3282 36.0598 91.4393 36.0598 91.5503L35.4074 91.5481C35.4077 91.437 35.4083 91.3258 35.4083 91.2147L36.0607 91.2172Z" fill="black"/>
<path d="M35.9255 20.2741C36.8394 32.7042 36.7889 45.1804 36.162 57.622C36.0387 66.2732 36.0513 74.8569 35.803 83.5009C35.7629 86.2561 35.7402 89.0108 35.7324 91.7663" stroke="black" stroke-width="0.299866" stroke-linecap="round"/>
<path d="M36.4031 91.069L36.5167 92.5987C36.5302 92.7807 36.1755 92.9319 35.747 92.9367C35.3186 92.9416 34.9605 92.7984 34.9699 92.6162L35.0488 91.0843L36.4031 91.069Z" fill="white" stroke="black" stroke-width="0.149933"/>
<path d="M36.7776 22.1761C36.7776 22.1761 36.5945 22.4246 36.0607 22.4506C35.5269 22.4766 35.3206 22.247 35.3206 22.247C35.3206 22.247 35.2912 21.5142 35.2368 21.1522C35.1815 20.7849 34.9913 20.0653 34.9913 20.0653C34.9913 20.0653 35.2216 19.7303 35.9265 19.6961C36.6314 19.6618 36.8931 19.9728 36.8931 19.9728C36.8931 19.9728 36.7738 20.7075 36.7546 21.0784C36.7356 21.4439 36.7776 22.1761 36.7776 22.1761V22.1761Z" fill="white" stroke="black" stroke-width="0.173667"/>
<path d="M35.745 20.9656C35.5326 20.976 35.3699 21.1551 35.3802 21.3674C35.3919 21.6073 35.7069 22.2201 35.728 22.6534C35.7491 23.0867 35.3676 24.5033 35.3866 24.8975C35.3998 25.1687 35.6342 25.5622 36.2063 25.5339C36.7784 25.5058 36.9741 25.0911 36.961 24.8199C36.9423 24.4288 36.432 23.0535 36.4109 22.6202C36.3898 22.1869 36.6693 21.5473 36.6321 21.3065C36.5996 21.0965 36.4423 20.9317 36.2299 20.942L35.745 20.9656ZM36.2395 21.1373C36.3465 21.1321 36.4186 21.2049 36.4389 21.3361C36.4422 21.3577 36.4013 21.5964 36.3382 21.8426C36.3382 21.8426 36.3053 22.0122 36.0448 22.0249C35.7843 22.0375 35.7353 21.8735 35.7353 21.8735C35.6513 21.6328 35.5777 21.4007 35.5757 21.3578C35.5704 21.2503 35.6469 21.1662 35.7547 21.1609L36.2395 21.1373ZM36.1436 24.2072C36.4428 24.1923 36.6972 24.4267 36.7118 24.7304C36.7263 25.0342 36.4957 25.2924 36.1965 25.3071C35.8972 25.3217 35.6428 25.0876 35.6282 24.7839C35.6138 24.4801 35.8444 24.2219 36.1436 24.2072Z" fill="white" stroke="black" stroke-width="0.173667"/>
<path d="M36.2744 20.4529C36.266 20.282 36.1206 20.1501 35.9495 20.1585C35.7784 20.1668 35.6464 20.3121 35.6547 20.4831L35.7021 21.4547C35.7104 21.6256 35.8559 21.7575 36.027 21.7492C36.1981 21.7408 36.33 21.5955 36.3217 21.4245L36.2744 20.4529Z" fill="white" stroke="black" stroke-width="0.173667"/>
<path opacity="0.2" d="M21.5981 48.9094C21.7183 45.1937 17.5896 36.8776 17.5896 36.8776C17.7996 60.9677 13.5867 71.2559 15.9327 85.8098C15.9318 85.8111 21.4763 52.6258 21.5974 48.9094H21.5981Z" fill="black"/>
<path opacity="0.2" d="M55.8825 67.9767C53.9598 57.7589 54.8734 36.8026 54.8734 36.8026C54.8734 36.8026 50.0884 45.0548 50.174 48.7719C50.2588 52.4886 55.9908 85.9836 55.9908 85.9836C55.9908 85.9836 57.9742 79.0923 55.8825 67.9767V67.9767Z" fill="black"/>
<path opacity="0.2" d="M55.1438 84.9961L54.1843 84.7602C50.2782 80.0019 48.291 58.5888 48.291 58.5888L55.144 84.9962L55.1438 84.9961Z" fill="black"/>
<path opacity="0.2" d="M16.2189 85.765L17.1828 85.6844C19.59 83.3648 21.5161 70.4301 21.1304 69.9677C18.964 77.4365 17.8357 80.5836 16.2188 85.765L16.2189 85.765Z" fill="black"/>
<path opacity="0.2" d="M29.0828 6.63075C28.5233 7.44648 28.7232 9.37428 28.7232 9.37428C29.8407 9.10556 30.8197 8.83311 31.6392 8.79284C33.335 12.5392 34.3383 16.3916 35.4778 20.2306L36.4297 20.1748C37.0942 15.8225 38.5547 12.1907 40.242 9.06479C40.242 9.06479 41.3519 9.05881 43.215 9.19962L43.2164 9.1974C43.5051 8.58191 43.6807 7.42342 43.3367 6.73477C42.6278 5.31583 37.6638 6.81646 36.0253 6.83073C34.9832 6.83976 29.6234 5.84314 29.0834 6.6306L29.0828 6.63075Z" fill="black"/>
<path opacity="0.2" d="M42.6195 2.54285C40.988 2.16989 44.5539 5.92084 43.5328 5.17963C41.6993 3.84861 39.4861 2.04401 37.6561 2.04401C36.6958 2.04401 37.9647 3.42732 37.0231 3.11787C35.7734 2.70719 34.1076 2.16746 33.7916 2.20316C32.2249 2.38022 30.9505 2.74795 30.4848 3.50187C28.68 6.42354 29.7869 2.94911 28.4337 3.28383C20.2879 5.29886 21.5638 9.36572 21.5638 9.36572C22.4293 9.71924 22.7144 9.95531 24.8611 9.93533C24.8611 9.93533 27.3197 5.73998 29.5162 5.66439C34.5493 5.49116 37.5133 5.28259 42.474 5.46981C44.2353 5.53629 47.7318 9.62605 47.7385 9.63386C49.2647 9.65154 50.3811 9.24176 51.1214 8.66983C51.0208 6.42341 45.5481 3.25684 42.6195 2.54285V2.54285Z" fill="black"/>
<path opacity="0.2" d="M21.934 10.9067C21.5797 10.8069 20.8325 10.0353 19.8263 8.08449C20.3163 10.8733 19.3718 14.435 18.6104 15.6317C20.8597 14.6912 22.4181 14.9703 26.4069 15.3184C14.783 12.7206 23.5241 11.3845 21.934 10.9067V10.9067Z" fill="black"/>
<path opacity="0.2" d="M19.21 15.5423C24.5315 15.7289 32.7682 22.8216 35.3474 21.0754C33.081 21.6679 30.756 19.2842 27.9697 17.9195C25.0376 16.4834 30.6913 17.6169 28.4337 16.738C24.9731 15.3907 21.7376 15.0838 19.21 15.5423Z" fill="black"/>
<path opacity="0.2" d="M52.4431 6.72418C52.6663 6.15764 52.1805 10.3973 52.9457 15.0574C52.258 14.7149 52.7275 13.6845 52.0474 13.0252C50.4491 14.2111 47.7676 14.1365 44.9844 14.3198C47.7825 13.1617 50.3751 13.3735 51.3625 12.838C51.474 11.8138 52.2652 10.0081 52.4431 6.72418V6.72418Z" fill="black"/>
<path opacity="0.2" d="M49.2511 14.9202C48.6711 14.9123 48.09 15.0016 47.4944 14.9971C42.6307 14.9609 43.4108 16.5319 40.4471 18.1036C39.5074 18.6019 48.5042 14.2251 42.6582 18.1998C41.2568 19.1526 39.6132 20.1931 37.1807 20.9854C42.3316 20.3384 44.0978 16.5935 52.1248 15.1176C51.1714 15.0247 50.2178 14.9335 49.2511 14.9202V14.9202Z" fill="black"/>
<path opacity="0.2" d="M16.1182 33.1197C16.1182 33.1197 12.2485 21.6614 10.1357 19.7892L16.1179 33.1198L16.1182 33.1197Z" fill="black"/>
<path opacity="0.2" d="M54.8291 36.8026C54.8291 36.8026 59.3809 28.4372 59.2914 26.5693C59.2023 24.701 62.548 19.9863 62.548 19.9863" fill="black"/>
<path opacity="0.2" d="M62.6198 20.6772C62.6198 20.6772 62.4848 24.253 60.5205 27.4097Z" fill="black"/>
<path opacity="0.2" d="M70.6957 67.2749C70.6957 67.2749 68.0251 54.1261 67.4873 51.0029C67.8735 49.8031 67.6147 47.0016 68.2004 44.8161" fill="black"/>
<path opacity="0.2" d="M61.2197 88.6928C62.4325 88.5197 63.9436 89.1924 66.3114 88.6154C66.3114 88.6154 64.4355 89.1678 63.1468 89.2627C62.3017 89.3249 61.2197 88.6928 61.2197 88.6928Z" fill="black"/>
<path opacity="0.2" d="M6.18555 96.0802C6.18555 96.0802 8.94652 99.0163 9.03046 99.2967C9.08118 99.466 8.87392 101.439 8.20012 101.357C7.83042 101.212 7.64668 97.77 6.18555 96.0802V96.0802Z" fill="black"/>
<path opacity="0.2" d="M1.07778 81.6276C0.40735 75.3552 -0.311739 71.8196 1.16095 59.2755C1.16095 59.2755 2.11613 68.4514 2.44897 68.8426C2.03782 72.1094 1.07778 81.6276 1.07778 81.6276V81.6276Z" fill="black"/>
<path opacity="0.2" d="M51.178 12.6466L49.8878 12.26C49.8878 12.26 46.4063 12.0988 43.9834 12.5748C46.7708 12.5702 48.965 12.9018 51.178 12.6466V12.6466Z" fill="black"/>
<path opacity="0.2" d="M22.418 10.8699C25.2572 11.1681 28.8045 10.9041 30.0489 9.78458C26.6106 10.6591 24.201 10.6596 22.418 10.8699V10.8699Z" fill="black"/>
<path opacity="0.2" d="M27.6973 14.0698C27.6973 14.0698 31.6355 14.1943 32.4887 15.5386L33.9043 17.7691C32.0644 15.7349 29.8226 15.1061 27.6973 14.0698Z" fill="black"/>
<path opacity="0.2" d="M39.3486 13.1034C39.7945 12.1677 39.9131 11.2646 40.6962 10.2952C42.2011 9.98024 43.3051 10.2949 44.5847 10.3337C40.8958 10.3876 40.9213 11.9974 39.3486 13.1034Z" fill="black"/>
<path opacity="0.2" d="M67.3191 97.8897C67.0997 97.1 65.0835 96.0927 63.7939 95.1734C63.7939 95.1734 65.1674 97.0353 66.1425 97.5968C66.4927 97.7985 67.3191 97.8897 67.3191 97.8897Z" fill="black"/>
<path opacity="0.2" d="M66.9304 97.8677C66.4379 97.9089 65.8219 97.963 65.4845 98.0011C65.2375 98.0264 64.7612 97.9219 64.0488 97.8618C64.5779 97.6311 66.9304 97.8677 66.9304 97.8677Z" fill="black"/>
<path d="M24.8018 11.9069C25.7237 12.0654 26.0425 13.2638 26.3365 14.1905C26.3463 14.2214 26.8373 14.2904 26.9553 14.8374" stroke="black" stroke-width="0.599732" stroke-linecap="round"/>
<path d="M26.6279 12.674C26.6121 12.6713 26.5966 12.6718 26.5816 12.6762L25.3277 13.0164C25.2418 13.0397 25.1992 13.1722 25.2086 13.3441L25.0805 13.381C25.0131 13.2256 24.9334 13.1256 24.8755 13.1413L24.8311 13.1535C24.7591 13.173 24.7501 13.3632 24.7999 13.5939C24.8039 13.6198 24.8092 13.6481 24.8171 13.677C24.8251 13.7064 24.8346 13.7335 24.8446 13.758C24.8769 13.8561 24.9134 13.9449 24.9525 14.0077L24.9523 14.008C25.0023 14.0883 25.0535 14.1325 25.0938 14.1215L25.1387 14.1094C25.1966 14.0937 25.2146 13.967 25.1942 13.799L25.3223 13.7619C25.4011 13.9149 25.505 14.0075 25.591 13.9842L26.8449 13.644C26.9644 13.6116 27.002 13.3697 26.9292 13.1015C26.8656 12.8669 26.7387 12.6924 26.6279 12.6742V12.674ZM26.5379 13.8872C26.4775 13.8872 26.4177 13.899 26.3619 13.9221C26.3061 13.9452 26.2554 13.9791 26.2127 14.0217C26.17 14.0644 26.1362 14.115 26.113 14.1708C26.0899 14.2265 26.078 14.2863 26.0781 14.3466C26.078 14.4069 26.0899 14.4667 26.113 14.5224C26.1361 14.5781 26.17 14.6288 26.2127 14.6715C26.2554 14.7141 26.3061 14.748 26.3619 14.771C26.4177 14.7941 26.4775 14.806 26.5379 14.806C26.5982 14.806 26.658 14.7941 26.7138 14.7711C26.7696 14.748 26.8203 14.7141 26.863 14.6715C26.9057 14.6288 26.9396 14.5781 26.9627 14.5224C26.9858 14.4667 26.9977 14.4069 26.9977 14.3466C26.9977 14.2863 26.9858 14.2265 26.9627 14.1708C26.9396 14.115 26.9057 14.0644 26.863 14.0217C26.8203 13.9791 26.7696 13.9452 26.7138 13.9221C26.658 13.899 26.5982 13.8872 26.5379 13.8872V13.8872Z" fill="black"/>
<path d="M47.055 11.4068C44.0965 11.1855 45.5138 13.2704 46.3724 13.7277C46.401 13.7429 46.3797 14.2378 46.8966 14.4532" stroke="black" stroke-width="0.599732" stroke-linecap="round"/>
<path d="M46.2945 12.0028C46.2841 12.0027 46.275 12.005 46.267 12.0097L46.2276 12.0337C46.1762 12.0647 46.1934 12.1913 46.2592 12.3473L46.1439 12.4142C46.0261 12.2886 45.9009 12.2279 45.8246 12.2739L44.7118 12.9443C44.6057 13.0083 44.6358 13.2516 44.7796 13.4894C44.9233 13.7273 45.1242 13.8672 45.2303 13.8032L46.3428 13.1327C46.4191 13.0868 46.4239 12.9477 46.3678 12.785L46.483 12.7182C46.5905 12.8489 46.6947 12.9234 46.746 12.8924L46.7859 12.8686C46.8217 12.847 46.825 12.7794 46.8014 12.6877L46.8012 12.688C46.7828 12.6163 46.7438 12.5285 46.6951 12.4373C46.6843 12.4132 46.671 12.3875 46.6553 12.3613C46.6398 12.3357 46.6231 12.3125 46.6072 12.2917C46.4913 12.1208 46.3666 12.0037 46.2944 12.0029L46.2945 12.0028ZM46.4814 13.4946C46.3754 13.4965 46.2732 13.5349 46.1923 13.6034C46.1114 13.6719 46.0567 13.7663 46.0374 13.8705C46.0153 13.9902 46.0416 14.1139 46.1107 14.2143C46.1798 14.3146 46.2859 14.3835 46.4058 14.4057C46.4652 14.4167 46.5262 14.4158 46.5853 14.4033C46.6443 14.3907 46.7004 14.3666 46.7501 14.3324C46.7999 14.2982 46.8424 14.2546 46.8753 14.2039C46.9082 14.1533 46.9307 14.0967 46.9417 14.0373C46.9526 13.978 46.9518 13.9171 46.9392 13.8581C46.9266 13.7991 46.9025 13.7432 46.8683 13.6935C46.8341 13.6438 46.7904 13.6013 46.7397 13.5685C46.6891 13.5357 46.6324 13.5131 46.5731 13.5022C46.5428 13.4966 46.5121 13.4941 46.4814 13.4946V13.4946Z" fill="black"/>
<path d="M25.4335 71.3984C25.5157 70.9815 25.244 70.577 24.8268 70.4949C24.4095 70.4128 24.0047 70.6842 23.9225 71.1011L21.3168 84.319C21.2346 84.7359 21.5062 85.1404 21.9235 85.2225C22.3407 85.3047 22.7456 85.0332 22.8278 84.6164L25.4335 71.3984Z" fill="#333333" stroke="black" stroke-width="0.599732"/>
<path d="M24.6519 71.3828L22.0986 84.3347" stroke="black" stroke-width="0.3" stroke-linecap="round"/>
<path d="M48.1752 71.11C48.0868 70.6944 47.6779 70.4291 47.262 70.5174C46.846 70.6058 46.5805 71.0143 46.6689 71.4299L49.4722 84.6074C49.5607 85.023 49.9695 85.2884 50.3855 85.2C50.8015 85.1117 51.067 84.7031 50.9786 84.2875L48.1752 71.11Z" fill="#333333" stroke="black" stroke-width="0.599732"/>
<path d="M47.4502 71.4026L50.1971 84.3149" stroke="black" stroke-width="0.3" stroke-linecap="round"/>
</svg>
