<svg width="76" height="101" viewBox="0 0 76 101" fill="none" xmlns="http://www.w3.org/2000/svg">
<path d="M59.8733 58.4132L62.9283 47.7177L65.5962 90.2735C65.6445 91.0413 66.346 91.599 67.105 91.4724L74.554 90.2308C75.4178 90.0867 76.0378 89.3201 75.9981 88.4455L72.7448 16.8768C72.715 16.2227 72.5248 15.6114 72.2681 15.0313L72.2688 15.028L72.2675 15.0304C71.7888 13.9491 70.9845 13.0255 69.8943 12.4763L58.7641 6.92136H17.2356L6.10263 12.4759C5.0167 13.0237 4.21519 13.9435 3.73632 15.0198L3.7224 14.9965L3.73162 15.0294C3.47483 15.6092 3.2847 16.2208 3.2549 16.8751L0.00181087 88.4453C-0.0379805 89.3201 0.582216 90.0867 1.44606 90.2306L8.90587 91.4739C9.66112 91.5998 10.3605 91.0478 10.4138 90.2841L13.0716 47.7173L16.1271 58.4116C16.8565 60.9643 16.9886 63.6505 16.5135 66.2625L10.6814 98.3202C10.4883 99.3824 11.3041 100.36 12.3838 100.36H29.9569C32.5749 100.36 34.783 98.4109 35.1078 95.8131L38 72.6755L40.8925 95.8131C41.2171 98.4108 43.4254 100.36 46.0432 100.36H63.6169C64.6965 100.36 65.5125 99.3824 65.3193 98.3202L59.4874 66.2625C59.0122 63.6511 59.1443 60.9653 59.8733 58.4132Z" fill="#D79947"/>
<path d="M60.0118 8.59258C58.4758 4.16555 55.0122 1.91939 52.6189 0.85522C51.2895 0.264034 49.8382 0 48.3833 0H27.6191C26.1646 0 24.7137 0.264034 23.3849 0.854828C20.9959 1.91685 17.5403 4.15653 16 8.56769C15.6664 9.52288 16.2466 10.5671 17.2279 10.8125L21.0998 11.7804C21.6843 11.9266 21.8858 12.6544 21.4599 13.0804L18.1342 16.4054C17.5997 16.94 17.4739 17.7595 17.8236 18.4295L38.0005 57.1016L37.9939 57.0771L38.0013 57.0989V72.6745V72.6765L38.0015 72.6753L40.8939 95.8129C41.1707 98.0283 42.8192 99.7672 44.9217 100.233C44.9521 100.239 44.9832 100.245 45.0118 100.25L41.4618 72.5636V52.1673C41.4618 51.0525 41.7311 49.9542 42.2466 48.9657L58.1789 18.4295C58.5284 17.7595 58.4027 16.94 57.8682 16.4054L54.5426 13.0804C54.1164 12.6544 54.3181 11.9264 54.9026 11.7804L58.7793 10.8111C59.7521 10.568 60.3401 9.53934 60.0118 8.59258Z" fill="#AD6D19"/>
<path d="M42.7815 0H33.2194C28.6555 0 25.3411 4.33942 26.5417 8.74234L37.9996 53.6409L49.459 8.74234C50.6596 4.33942 47.3451 0 42.7815 0Z" fill="black" fill-opacity="0.72"/>
<path d="M13.0716 47.7175L3.73181 15.029C3.47503 15.6088 3.2849 16.2204 3.2551 16.8747L0.00181087 88.4453C-0.0379805 89.3201 0.582216 90.0867 1.44606 90.2306L8.89587 91.4721C9.65465 91.5988 10.3562 91.0411 10.4046 90.2733L13.0716 47.7175Z" fill="#AD6D19"/>
<path d="M62.9287 47.7175L72.2685 15.0292C72.5253 15.609 72.7154 16.2206 72.7452 16.8749L75.9985 88.4454C76.0383 89.3203 75.4181 90.0869 74.5543 90.2308L67.1044 91.4723C66.3457 91.599 65.6441 91.0413 65.5957 90.2735L62.9287 47.7175Z" fill="#AD6D19"/>
<path d="M41.4604 6.92133H34.539C33.5834 6.92133 32.8086 6.14648 32.8086 5.1909C32.8086 4.23532 33.5834 3.46046 34.539 3.46046H41.4604C42.416 3.46046 43.1908 4.23532 43.1908 5.1909C43.1906 6.14668 42.416 6.92133 41.4604 6.92133Z" fill="#AD6D19"/>
<path d="M30.2126 60.5623C31.6461 60.5623 32.8081 59.4002 32.8081 57.9668C32.8081 56.5334 31.6461 55.3714 30.2126 55.3714C28.7792 55.3714 27.6172 56.5334 27.6172 57.9668C27.6172 59.4002 28.7792 60.5623 30.2126 60.5623Z" fill="#AD6D19"/>
<path d="M30.2126 72.6747C31.6461 72.6747 32.8081 71.5127 32.8081 70.0793C32.8081 68.6458 31.6461 67.4838 30.2126 67.4838C28.7792 67.4838 27.6172 68.6458 27.6172 70.0793C27.6172 71.5127 28.7792 72.6747 30.2126 72.6747Z" fill="#AD6D19"/>
</svg>
