<svg width="163" height="28" viewBox="0 0 163 28" fill="none" xmlns="http://www.w3.org/2000/svg">
<path d="M5.76758 24.9785C6.58789 24.9316 7.41406 24.9082 8.24609 24.9082L8.50977 3.56836H6.01367L5.76758 24.9785ZM1.67188 1.58203C3.23047 1.67578 5.75 1.72266 9.23047 1.72266C12.7109 1.72266 16.584 1.45898 20.8496 0.931641H20.9551C21.2246 0.931641 21.4414 1.02539 21.6055 1.21289C21.7695 1.38867 21.8516 1.59375 21.8516 1.82812V1.95117L21.1484 9.43945C21.125 9.67383 21.0254 9.87305 20.8496 10.0371C20.6738 10.1895 20.457 10.2656 20.1992 10.2656C19.9414 10.2656 19.7246 10.166 19.5488 9.9668C19.3848 9.75586 19.3027 9.53906 19.3027 9.31641V9.24609L19.918 2.91797C16.5781 3.25781 13.3965 3.46289 10.373 3.5332L10.2324 14.7656C11.7559 14.7656 13.0156 14.6777 14.0117 14.502C15.0195 14.3145 15.5938 14.2207 15.7344 14.2207C15.8867 14.2207 16.0449 14.291 16.209 14.4316C16.3848 14.5723 16.4785 14.7773 16.4902 15.0469C16.5137 15.3047 16.4551 15.5273 16.3145 15.7148C16.1738 15.9023 15.9922 16.0137 15.7695 16.0488C13.8242 16.4121 11.9668 16.5938 10.1973 16.5938L10.127 24.9434C10.6309 24.9668 11.1582 24.9902 11.709 25.0137C12.2598 25.0371 12.752 25.0664 13.1855 25.1016C13.9004 25.1719 14.2578 25.5176 14.2578 26.1387C14.2344 26.373 14.1348 26.5723 13.959 26.7363C13.7949 26.8887 13.5957 26.9648 13.3613 26.9648H13.291C11.4863 26.8242 9.73438 26.7539 8.03516 26.7539C6.33594 26.7539 4.12695 26.9414 1.4082 27.3164H1.30273C1.0332 27.3164 0.810547 27.2227 0.634766 27.0352C0.458984 26.8594 0.371094 26.6543 0.371094 26.4199C0.371094 26.1855 0.441406 25.9805 0.582031 25.8047C0.734375 25.6289 0.927734 25.5234 1.16211 25.4883C2.12305 25.3477 3.04883 25.2422 3.93945 25.1719L4.18555 3.5332C3.75195 3.50977 3.31836 3.49219 2.88477 3.48047C2.45117 3.46875 2.05859 3.45117 1.70703 3.42773C1.02734 3.38086 0.6875 3.06445 0.6875 2.47852C0.6875 2.23242 0.78125 2.02148 0.96875 1.8457C1.15625 1.66992 1.37891 1.58203 1.63672 1.58203H1.67188ZM28.4961 17.7539C30.582 17.9883 32.1934 18.1055 33.3301 18.1055C35.0762 18.1055 36.9277 17.9883 38.8848 17.7539C37.5957 13.8047 35.873 10.2363 33.7168 7.04883C31.5488 10.7285 29.8086 14.2969 28.4961 17.7539ZM42.998 25.0488L44.4746 25.0137H45.0195C45.1953 25.0137 45.3711 25.0254 45.5469 25.0488C43.4727 16.2012 40.332 8.91797 36.125 3.19922L34.7539 5.32617C37.168 8.63086 39.1133 12.5215 40.5898 16.998C41.9609 21.2754 42.7637 23.959 42.998 25.0488ZM30.5352 27.4043C29.3281 27.041 27.8047 26.8594 25.9648 26.8594C24.125 26.8594 22.6016 27.041 21.3945 27.4043C21.125 27.4043 20.9023 27.3105 20.7266 27.123C20.5508 26.9355 20.4629 26.7246 20.4629 26.4902C20.4629 25.998 20.7148 25.6875 21.2188 25.5586C22.0273 25.3477 23.0938 25.1895 24.418 25.084C25.9648 17.5605 29.5918 9.56836 35.2988 1.10742C35.4863 0.849609 35.6973 0.720703 35.9316 0.720703C36.3301 0.720703 36.6113 0.826172 36.7754 1.03711C41.6504 7.25977 45.2129 15.293 47.4629 25.1367C48.6582 25.2422 49.8477 25.3828 51.0312 25.5586C51.2656 25.5938 51.4531 25.6992 51.5938 25.875C51.7461 26.0508 51.8223 26.2559 51.8223 26.4902C51.8223 26.7246 51.7168 26.9355 51.5059 27.123C51.3066 27.3105 51.1484 27.4043 51.0312 27.4043C50.8672 27.4043 50.5098 27.3516 49.959 27.2461C47.6855 26.8359 44.8555 26.7539 41.4688 27C40.4727 27.0703 39.7227 27.1523 39.2188 27.2461C38.7148 27.3398 38.4512 27.3867 38.4277 27.3867C38.4043 27.3984 38.3223 27.4043 38.1816 27.4043C38.041 27.4043 37.877 27.3047 37.6895 27.1055C37.5137 26.9062 37.4258 26.6953 37.4258 26.4727C37.4258 26.25 37.4961 26.0508 37.6367 25.875C37.7891 25.6992 38.041 25.582 38.3926 25.5234C38.7441 25.4531 39.1602 25.3945 39.6406 25.3477C40.1211 25.2891 40.6133 25.2305 41.1172 25.1719C40.6016 23.2148 40.0508 21.3281 39.4648 19.5117C37.3906 19.8047 35.4922 19.9512 33.7695 19.9512C32.0469 19.9512 30.0723 19.8047 27.8457 19.5117C27.2246 21.3633 26.7207 23.1973 26.334 25.0137C27.8223 25.0605 29.2988 25.2422 30.7637 25.5586C30.9746 25.5938 31.1445 25.6992 31.2734 25.875C31.4141 26.0508 31.4844 26.2617 31.4844 26.5078C31.4844 26.7422 31.3789 26.9473 31.168 27.123C30.9688 27.3105 30.7578 27.4043 30.5352 27.4043ZM57.834 25.2773L70.3672 3.33984C69.8984 3.36328 69.4297 3.38672 68.9609 3.41016C68.5039 3.42188 68.0352 3.43945 67.5547 3.46289L54.6699 25.4531C55.7246 25.3828 56.7793 25.3242 57.834 25.2773ZM59.9961 25.1719C61.0742 25.1133 62.5918 25.084 64.5488 25.084C66.5059 25.084 68.5918 25.125 70.8066 25.207C70.8535 22.5703 71.0645 20.2852 71.4395 18.3516C71.4863 18.1406 71.5918 17.9648 71.7559 17.8242C71.9316 17.6719 72.1367 17.5957 72.3711 17.5957C72.6055 17.5957 72.8164 17.6953 73.0039 17.8945C73.1914 18.0938 73.2852 18.2695 73.2852 18.4219C73.2852 18.5742 73.2266 18.9375 73.1094 19.5117C72.793 21.1758 72.6348 23.2383 72.6348 25.6992V26.1387C72.6348 26.3965 72.541 26.6191 72.3535 26.8066C72.1777 26.9824 71.9727 27.0703 71.7383 27.0703H71.668C65.9961 26.7656 59.791 26.8887 53.0527 27.4395H52.9824C52.7246 27.4395 52.502 27.3457 52.3145 27.1582C52.1387 26.9707 52.0508 26.7949 52.0508 26.6309C52.0508 26.4434 52.0977 26.2559 52.1914 26.0684L65.3574 3.5332H63.1602C60.4648 3.5332 57.998 3.45703 55.7598 3.30469C55.5488 5.09766 55.1504 7.07813 54.5645 9.24609C54.4121 9.67969 54.1543 9.89648 53.791 9.89648C53.4395 9.89648 53.1699 9.80273 52.9824 9.61523C52.8066 9.42773 52.7188 9.22266 52.7188 9L52.7715 8.71875C53.3809 6.64453 53.7852 4.48242 53.9844 2.23242C54.0195 1.99805 54.125 1.80469 54.3008 1.65234C54.4766 1.48828 54.6816 1.40625 54.916 1.40625H55.0039C57.6758 1.59375 60.4062 1.6875 63.1953 1.6875C65.9844 1.6875 68.9141 1.59375 71.9844 1.40625H72.0195C72.2891 1.42969 72.5117 1.5293 72.6875 1.70508C72.8633 1.86914 72.9512 2.0332 72.9512 2.19727C72.9512 2.49023 72.9043 2.69531 72.8105 2.8125L59.9961 25.1719ZM81.9512 25.2773L94.4844 3.33984C94.0156 3.36328 93.5469 3.38672 93.0781 3.41016C92.6211 3.42188 92.1523 3.43945 91.6719 3.46289L78.7871 25.4531C79.8418 25.3828 80.8965 25.3242 81.9512 25.2773ZM84.1133 25.1719C85.1914 25.1133 86.709 25.084 88.666 25.084C90.623 25.084 92.709 25.125 94.9238 25.207C94.9707 22.5703 95.1816 20.2852 95.5566 18.3516C95.6035 18.1406 95.709 17.9648 95.873 17.8242C96.0488 17.6719 96.2539 17.5957 96.4883 17.5957C96.7227 17.5957 96.9336 17.6953 97.1211 17.8945C97.3086 18.0938 97.4023 18.2695 97.4023 18.4219C97.4023 18.5742 97.3438 18.9375 97.2266 19.5117C96.9102 21.1758 96.752 23.2383 96.752 25.6992V26.1387C96.752 26.3965 96.6582 26.6191 96.4707 26.8066C96.2949 26.9824 96.0898 27.0703 95.8555 27.0703H95.7852C90.1133 26.7656 83.9082 26.8887 77.1699 27.4395H77.0996C76.8418 27.4395 76.6191 27.3457 76.4316 27.1582C76.2559 26.9707 76.168 26.7949 76.168 26.6309C76.168 26.4434 76.2148 26.2559 76.3086 26.0684L89.4746 3.5332H87.2773C84.582 3.5332 82.1152 3.45703 79.877 3.30469C79.666 5.09766 79.2676 7.07813 78.6816 9.24609C78.5293 9.67969 78.2715 9.89648 77.9082 9.89648C77.5566 9.89648 77.2871 9.80273 77.0996 9.61523C76.9238 9.42773 76.8359 9.22266 76.8359 9L76.8887 8.71875C77.498 6.64453 77.9023 4.48242 78.1016 2.23242C78.1367 1.99805 78.2422 1.80469 78.418 1.65234C78.5938 1.48828 78.7988 1.40625 79.0332 1.40625H79.1211C81.793 1.59375 84.5234 1.6875 87.3125 1.6875C90.1016 1.6875 93.0312 1.59375 96.1016 1.40625H96.1367C96.4062 1.42969 96.6289 1.5293 96.8047 1.70508C96.9805 1.86914 97.0684 2.0332 97.0684 2.19727C97.0684 2.49023 97.0215 2.69531 96.9277 2.8125L84.1133 25.1719ZM112.625 25.418C113.422 25.3711 114.213 25.3477 114.998 25.3477V16.207C112.033 13.4883 109.08 9.39258 106.139 3.91992C105.928 3.94336 105.711 3.95508 105.488 3.95508C104.996 3.95508 104.562 3.95508 104.188 3.95508C103.824 3.95508 103.52 3.94336 103.273 3.91992C105.523 8.30273 107.879 11.9414 110.34 14.8359C110.984 15.5859 111.652 16.2715 112.344 16.8926C112.531 17.0801 112.625 17.3027 112.625 17.5605V25.418ZM121.73 1.98633C123.02 1.98633 124.367 1.875 125.773 1.65234H125.914C126.16 1.65234 126.377 1.75195 126.564 1.95117C126.752 2.13867 126.846 2.34961 126.846 2.58398C126.846 2.80664 126.77 3.00586 126.617 3.18164C126.465 3.35742 126.277 3.46289 126.055 3.49805C124.895 3.67383 123.74 3.7793 122.592 3.81445C121.701 7.00195 120.582 9.86719 119.234 12.4102C118.449 13.8984 117.652 15.1406 116.844 16.1367V25.3828C117.852 25.418 118.871 25.4883 119.902 25.5938C120.137 25.6289 120.33 25.7344 120.482 25.9102C120.646 26.0859 120.729 26.3086 120.729 26.5781C120.729 26.8359 120.623 27.041 120.412 27.1934C120.201 27.3574 119.996 27.4395 119.797 27.4395H119.674C118.338 27.2637 116.686 27.1758 114.717 27.1758C112.748 27.1758 110.562 27.416 108.16 27.8965H107.984C107.727 27.8965 107.504 27.8027 107.316 27.6152C107.141 27.4395 107.053 27.2344 107.053 27C107.053 26.5078 107.305 26.1973 107.809 26.0684C108.98 25.8457 109.977 25.6875 110.797 25.5938V17.9648C107.527 14.8828 104.299 10.1543 101.111 3.7793C99.9512 3.68555 99.1719 3.60937 98.7734 3.55078C98.0703 3.43359 97.7188 3.11133 97.7188 2.58398C97.7188 2.2793 97.8242 2.05078 98.0352 1.89844C98.2461 1.73438 98.4512 1.65234 98.6504 1.65234H98.7734C100.766 1.96875 102.781 2.12695 104.82 2.12695C106.859 2.12695 108.828 1.96875 110.727 1.65234H110.832C111.102 1.65234 111.324 1.74609 111.5 1.93359C111.676 2.12109 111.764 2.33203 111.764 2.56641C111.764 2.80078 111.688 3.00586 111.535 3.18164C111.395 3.35742 111.154 3.46875 110.814 3.51562C110.041 3.64453 109.168 3.74414 108.195 3.81445C109.719 6.63867 111.436 9.25781 113.346 11.6719C114.131 12.668 114.957 13.5879 115.824 14.4316C116.984 12.8965 118.156 10.6641 119.34 7.73438C119.809 6.5625 120.26 5.24414 120.693 3.7793C119.217 3.7207 118.238 3.65039 117.758 3.56836C116.973 3.43945 116.58 3.11133 116.58 2.58398C116.58 2.30273 116.68 2.08008 116.879 1.91602C117.09 1.74023 117.295 1.65234 117.494 1.65234H117.635C119.1 1.875 120.465 1.98633 121.73 1.98633ZM144.389 25.6992C145.408 25.793 146.234 25.8574 146.867 25.8926V3.26953C146.105 3.32812 145.279 3.42773 144.389 3.56836V25.6992ZM160.684 17.7012C160.977 16.6934 161.123 15.4453 161.123 13.957C161.123 12.457 160.807 10.9863 160.174 9.54492C159.541 8.0918 158.668 6.87891 157.555 5.90625C155.27 3.91406 152.322 3.02344 148.713 3.23438V25.8926C152.135 25.998 155.047 24.9668 157.449 22.7988C159.008 21.4043 160.086 19.7051 160.684 17.7012ZM142.561 3.88477L139.818 4.57031C139.549 4.57031 139.332 4.47656 139.168 4.28906C139.004 4.08984 138.922 3.87891 138.922 3.65625C138.922 3.1875 139.127 2.89453 139.537 2.77734C139.584 2.76562 139.842 2.68945 140.311 2.54883C140.791 2.39648 141.43 2.23828 142.227 2.07422C144.312 1.62891 146.398 1.40625 148.484 1.40625C150.582 1.40625 152.51 1.68164 154.268 2.23242C156.025 2.77148 157.549 3.58594 158.838 4.67578C161.592 7.00781 162.969 10.2832 162.969 14.502C162.969 17.291 162.248 19.7285 160.807 21.8145C159.482 23.7246 157.625 25.207 155.234 26.2617C152.926 27.2578 150.377 27.7559 147.588 27.7559C144.752 27.7559 142.174 27.3691 139.854 26.5957C139.443 26.4316 139.238 26.1797 139.238 25.8398C139.238 25.5 139.338 25.2422 139.537 25.0664C139.736 24.8906 139.953 24.8027 140.188 24.8027L142.561 25.418V3.88477Z" fill="#D79947"/>
</svg>
