<svg width="50" height="50" viewBox="0 0 50 50" fill="none" xmlns="http://www.w3.org/2000/svg">
<path d="M37.3302 29.8335C36.7906 30.3565 36.5427 31.1127 36.6656 31.8544L38.5177 42.1044C38.674 42.9731 38.3073 43.8523 37.5802 44.3544C36.8677 44.8752 35.9198 44.9377 35.1427 44.521L25.9156 39.7085C25.5948 39.5377 25.2386 39.446 24.874 39.4356H24.3094C24.1136 39.4648 23.9219 39.5273 23.7469 39.6231L14.5177 44.4585C14.0615 44.6877 13.5448 44.769 13.0386 44.6877C11.8052 44.4544 10.9823 43.2794 11.1844 42.0398L13.0386 31.7898C13.1615 31.0419 12.9136 30.2815 12.374 29.7502L4.85105 22.4585C4.22188 21.8481 4.00313 20.9315 4.29063 20.1044C4.5698 19.2794 5.2823 18.6773 6.14272 18.5419L16.4969 17.0398C17.2844 16.9585 17.9761 16.4794 18.3302 15.771L22.8927 6.41688C23.001 6.20854 23.1406 6.01688 23.3094 5.85438L23.4969 5.70854C23.5948 5.60021 23.7073 5.51063 23.8323 5.43771L24.0594 5.35438L24.4136 5.20854H25.2906C26.074 5.28979 26.7635 5.75854 27.124 6.45854L31.7469 15.771C32.0802 16.4523 32.7281 16.9252 33.4761 17.0398L43.8302 18.5419C44.7052 18.6669 45.4365 19.271 45.726 20.1044C45.999 20.9398 45.7635 21.8565 45.1219 22.4585L37.3302 29.8335Z" fill="#D79947"/>
</svg>
