<svg width="38" height="98" viewBox="0 0 38 98" fill="none" xmlns="http://www.w3.org/2000/svg">
<g clip-path="url(#clip0)">
<path d="M19.0058 0.0628815L34.7653 0.172579V3.8002C34.7653 3.8002 37.003 15.027 37.5 20.7164C38.0794 27.3484 37.9881 34.0314 37.7788 40.6853C37.5144 49.0917 36.1196 57.4381 35.8385 65.8435C35.5986 73.0179 36.2616 80.1995 36.0562 87.3751C35.9645 90.5791 35.4107 96.9718 35.4107 96.9718C35.4107 96.9718 31.3393 98.3471 29.3798 97.8229C27.2592 97.2555 24.2159 93.7716 24.2159 93.7716V69.2525C24.2159 69.2525 22.6442 52.3025 21.4162 43.8825C20.801 39.6637 19.2971 32.0424 18.9985 30.5372C18.6997 32.0433 17.1999 39.6641 16.5846 43.8825C15.3567 52.3027 13.785 69.2525 13.785 69.2525V93.7716C13.785 93.7716 10.7379 97.2554 8.6173 97.8229C6.65782 98.3472 2.59025 96.9718 2.59025 96.9718C2.59025 96.9718 2.03644 90.579 1.94476 87.3751C1.73943 80.1997 2.3986 73.0191 2.15865 65.8435C1.87752 57.4376 0.486646 49.0907 0.222156 40.6853C0.0128738 34.0318 -0.0783913 27.3485 0.500969 20.7164C0.997988 15.027 3.23571 3.8002 3.23571 3.8002V0.172579L18.9914 0.0628815L18.9991 1.90133L19.0067 0.0628815H19.0058Z" fill="#D79947" stroke="#D79947" stroke-width="0.315386"/>
<path d="M3.06321 0.621399H34.9756V3.03493H3.06321V0.621399Z" fill="#502D16" stroke="#502D16" stroke-width="0.301866"/>
<path d="M26.0038 0.336929H26.667V3.31817H26.0038V0.336929Z" fill="black" stroke="black" stroke-width="0.540541"/>
<path d="M11.4153 0.336929H11.9902V3.31817H11.4153V0.336929Z" fill="black" stroke="black" stroke-width="0.503294"/>
<path d="M33.3193 0.336929H33.9824V3.31817H33.3193V0.336929Z" fill="black" stroke="black" stroke-width="0.540541"/>
<path d="M4.09276 0.336929H4.68066V3.31817H4.09276V0.336929Z" fill="black" stroke="black" stroke-width="0.508939"/>
<path d="M17.8155 0.237686H20.2236V3.41829H17.8155V0.237686Z" fill="#666666" stroke="#C8B7B7" stroke-width="0.370043"/>
</g>
<defs>
<clipPath id="clip0">
<rect width="38" height="98" fill="white" transform="matrix(-1 0 0 1 38 0)"/>
</clipPath>
</defs>
</svg>
